<svg xmlns="http://www.w3.org/2000/svg" xmlns:xlink="http://www.w3.org/1999/xlink" width="100" zoomAndPan="magnify" viewBox="0 0 75 74.999997" height="100" preserveAspectRatio="xMidYMid meet" version="1.0"><defs><g/><clipPath id="086e7230dc"><path d="M 0 34.839844 L 74.996094 34.839844 L 74.996094 70.089844 L 0 70.089844 Z M 0 34.839844 " clip-rule="nonzero"/></clipPath></defs><g clip-path="url(#086e7230dc)"><path stroke-linecap="round" transform="matrix(0.00458692, 0, 0, -0.00457931, 0.1075, 70.063412)" fill="none" stroke-linejoin="round" d="M 11501.345353 3760.317553 C 11095.98098 4080.20059 10690.616606 4400.936648 10036.583332 4739.586156 C 9382.550057 5079.088685 8480.699486 5436.504665 7773.015044 5636.11168 C 7066.182208 5836.571716 6553.515501 5879.222788 6433.439079 5911.637602 C 6313.362658 5943.199395 6585.876522 5964.524931 7178.594177 5970.496081 C 7770.460227 5975.614209 8683.381673 5964.524931 9673.799249 5924.432923 C 10663.36522 5884.340916 11731.278926 5815.24618 12606.729716 5593.460608 C 13482.180506 5372.528058 14165.168379 4998.904671 14605.448591 4745.557306 C 15045.728804 4491.35692 15243.301355 4358.285576 15176.876101 4251.657898 C 15109.599241 4145.030219 14779.17618 4064.846204 14175.387649 3992.339383 C 13572.450724 3920.685582 12696.999934 3856.708975 11787.484911 3805.527689 C 10877.118282 3755.199425 9932.687421 3717.666482 9233.519037 3755.199425 C 8534.350653 3792.732368 8080.444748 3904.478175 7687.854462 4181.71014 C 7296.115781 4459.795127 6964.841115 4902.513249 7018.492282 5150.742486 C 7071.291843 5398.971722 7509.017238 5452.712072 7880.317379 5254.8111 C 8250.765913 5057.76315 8555.640799 4609.073877 8638.246564 4291.749905 C 8720.852329 3973.572911 8582.04058 3786.761218 8125.579857 3883.152639 C 7669.119133 3979.544061 6895.009437 4358.285576 6513.490027 4723.378749 C 6131.970616 5089.324943 6143.041492 5441.622794 6367.013825 5630.993551 C 6590.986157 5820.364309 7028.711552 5847.660995 7522.642931 5642.08283 C 8016.574311 5436.504665 8565.860069 4998.904671 8798.34846 4630.399413 C 9029.985244 4261.894155 8944.824662 3963.336654 8640.801382 3808.086754 C 8336.778102 3653.689875 7813.040518 3642.600596 7197.329506 3672.456346 C 6580.766887 3701.459075 5870.527628 3771.406832 5670.400258 3784.202153 C 5470.272889 3797.850496 5779.405804 3755.199425 5921.623977 3779.084025 C 6062.990544 3802.968625 6035.739158 3894.241918 5860.308358 3968.454782 C 5684.025952 4043.520668 5357.86092 4102.379147 5241.190922 4064.846204 C 5123.669318 4027.313261 5213.939535 3893.388897 5256.519827 3559.857517 C 5299.100118 3226.326138 5293.990483 2693.187743 5150.069098 2415.102757 C 5006.147714 2137.870792 4723.414579 2116.545256 4469.636043 2135.311728 C 4215.857507 2154.078199 3991.885174 2212.936678 3916.943861 1961.295356 C 3842.002549 1710.507055 3916.943861 1150.071975 4060.865246 795.21506 C 4205.638237 440.358145 4418.539693 291.079394 4573.531954 274.871987 C 4728.524214 258.66458 4824.755673 376.381537 4915.02589 696.264574 C 5006.147714 1017.000632 5091.308296 1539.902769 5051.282822 2020.153835 C 5011.257349 2500.4049 4846.045818 2938.004894 4677.427865 3296.273895 C 4509.661517 3653.689875 4338.488746 3930.92184 4157.096705 3904.478175 C 3975.704663 3878.034511 3783.241747 3547.062196 3703.190799 3031.837251 C 3623.139851 2516.612307 3655.500873 1817.134734 3775.577294 1289.114468 C 3895.653716 761.094203 4104.297143 402.825202 4328.269476 237.339044 C 4552.241808 71.852887 4792.394651 99.149572 4949.941729 304.727737 C 5107.488807 509.452881 5182.43012 894.165546 5208.8299 1371.857547 C 5235.229681 1849.549548 5213.939535 2421.073907 5088.753479 3026.719123 C 4963.567422 3632.364339 4733.633849 4272.983433 4467.081225 4563.863741 C 4199.676996 4854.744049 3895.653716 4795.88557 3706.597222 4502.446198 C 3516.689123 4209.006826 3441.74781 3680.133539 3439.192993 3157.231402 C 3436.638175 2634.329265 3506.469853 2116.545256 3302.93606 1958.736291 C 3100.253874 1801.780348 2625.057822 2003.946427 2203.512938 2142.988921 C 1781.968054 2282.031414 1414.074337 2356.244278 1259.082077 2348.567085 C 1104.089816 2340.889892 1162.850618 2249.616599 1317.842879 2185.639992 C 1472.835139 2121.663385 1723.207252 2084.130442 2102.171845 1977.502763 C 2481.136438 1870.875084 2988.69351 1695.152669 3279.091097 1553.551112 C 3570.34029 1411.949554 3644.429997 1305.321875 3655.500873 1358.209204 C 3666.571748 1411.949554 3612.920581 1625.204912 3439.192993 1774.483662 C 3266.31701 1924.615434 2972.513 2009.917577 2643.793151 2156.637263 C 2315.924907 2303.35695 1953.140825 2511.494179 1728.316887 2868.910158 C 1504.344555 3226.326138 1419.183972 3733.873889 1414.074337 4197.917547 C 1408.113096 4662.814227 1483.054409 5084.206814 1488.164044 5238.603693 C 1494.125285 5393.853593 1429.403242 5281.254765 1291.443098 5217.278157 C 1152.631348 5153.30155 938.878286 5137.094143 863.936973 4969.048921 C 788.99566 4801.003699 853.717703 4481.120662 927.80741 4315.634505 C 1002.748723 4150.148347 1087.909305 4139.059069 1141.560472 4307.104291 C 1195.21164 4476.002534 1216.501785 4822.329235 1176.476311 5033.025528 C 1136.450837 5244.574843 1035.109744 5318.787707 869.046608 5287.225915 C 703.835078 5254.8111 474.75311 5115.768607 399.811797 5025.348335 C 324.870485 4934.928064 404.921432 4892.276992 484.97238 4713.142492 C 565.023328 4534.007991 645.074276 4219.243083 706.389895 3808.086754 C 767.705515 3397.783445 810.285806 2890.235694 903.962447 2594.237257 C 997.639088 2298.238821 1141.560472 2212.936678 1269.301346 2140.429856 C 1397.893826 2068.776056 1509.45419 2009.917577 1440.474118 1977.502763 C 1371.494046 1945.94097 1120.270327 1939.96982 936.323468 1948.500034 C 752.37661 1956.177227 634.855006 1977.502763 538.623547 2095.21972 C 442.392089 2212.936678 367.450776 2426.192036 295.915887 2823.700022 C 223.529391 3221.208009 154.549319 3802.968625 180.9491 4141.618133 C 207.348881 4481.120662 329.98012 4576.659063 431.321213 4353.167448 C 533.513912 4128.822811 613.56486 3584.595139 631.448582 3122.257523 C 650.18391 2660.772929 607.603619 2282.031414 546.288 2111.427128 C 484.97238 1939.96982 404.921432 1977.502763 306.135157 2265.824007 C 207.348881 2554.14525 89.827277 3093.254794 47.246985 3578.623989 C 4.666694 4064.846204 37.027715 4497.32807 132.407568 4814.652042 C 228.639026 5131.976014 388.740922 5334.995115 597.384349 5468.066458 C 805.176171 5601.990823 1061.509525 5665.96743 1437.067694 5939.787309 C 1813.47747 6213.607188 2309.112061 6698.123361 2648.05118 6962.560005 C 2986.990299 7226.143627 3169.233946 7270.500741 3300.381243 7130.605227 C 3431.52854 6989.85669 3511.579488 6664.002504 3551.604962 6404.683989 C 3591.630436 6146.218495 3591.630436 5954.288673 3460.483138 5881.781852 C 3330.187447 5810.128052 3068.744458 5857.897252 2803.895046 5970.496081 C 2539.89724 6082.241888 2273.344616 6257.964303 2033.191773 6311.704653 C 1793.03893 6365.445003 1579.285867 6295.497246 1496.680102 6175.221224 C 1414.074337 6055.798224 1461.764263 5884.340916 1614.201706 5793.920644 C 1765.787543 5703.500373 2022.120897 5692.411094 2246.09323 5689.85203 C 2470.917168 5687.292966 2662.528479 5692.411094 2772.38563 5639.523765 C 2881.391176 5585.783415 2908.642563 5474.037608 2961.442124 5431.386536 C 3015.093291 5387.882443 3095.144239 5415.179129 3118.989202 5545.691408 C 3142.834165 5676.203687 3111.324749 5911.637602 2985.287087 6087.360017 C 2860.101031 6263.935453 2641.238333 6380.799389 2462.40111 6429.42161 C 2283.563886 6477.190811 2144.752136 6455.865275 2240.983595 6610.262154 C 2337.215053 6765.512054 2668.48972 7096.484369 2953.777671 7293.53232 C 3239.065623 7491.433292 3479.218467 7555.409899 4138.361376 7598.060971 C 4797.504286 7640.712042 5875.637263 7662.037578 6738.313965 7590.383778 C 7600.139062 7517.876956 8245.656278 7352.390799 8822.193423 7087.954155 C 9398.730567 6824.370533 9905.436034 6460.983403 10164.324206 6271.612646 C 10423.212377 6082.241888 10434.283253 6066.034481 9999.112675 6089.919081 C 9563.942098 6113.803681 8683.381673 6178.63331 7616.319572 6146.218495 C 6548.405866 6113.803681 5293.990483 5985.850466 4645.918449 5930.404073 C 3996.994809 5874.104659 3954.414518 5890.312066 3890.544081 6117.215767 C 3826.673644 6344.119467 3740.661455 6781.719461 3711.706857 7042.744019 C 3681.900653 7304.621598 3709.15204 7389.923741 4039.5751 7448.78222 C 4370.849767 7507.640699 5006.147714 7539.202492 5873.082445 7491.433292 C 6740.868782 7443.664092 7840.291905 7314.857856 8664.646345 7051.274233 C 9489.000785 6786.83759 10039.138149 6386.770539 10388.296538 6210.195103 C 10738.306533 6034.472688 10888.189158 6082.241888 10877.118282 6164.984967 C 10866.047407 6247.728046 10695.726241 6365.445003 10524.55347 6394.447732 C 10354.232305 6423.45046 10183.059534 6365.445003 10265.665299 6292.938181 C 10349.12267 6221.284381 10684.655366 6135.129217 11103.645432 6079.682824 C 11522.635499 6023.383409 12025.082937 5996.939745 12555.633367 5980.732338 C 13087.035402 5964.524931 13647.392036 5959.406802 14061.272468 5887.753002 C 14474.301294 5815.24618 14741.705524 5676.203687 14981.858367 5439.063729 C 15222.01121 5201.07075 15434.912666 4864.980306 15427.248214 4755.793563 C 15419.583762 4646.60682 15189.650188 4763.470756 14890.736543 4971.607985 C 14591.822898 5179.745214 14223.929181 5479.155736 14146.433051 5599.431758 C 14068.936921 5718.854759 14282.689983 5660.849301 14591.822898 5460.389265 C 14901.807419 5259.929229 15307.171792 4918.720656 15603.53062 4670.49142 C 15899.889448 4422.262184 16086.391124 4267.865305 16145.151926 4098.967061 C 16203.912728 3930.92184 16134.08105 3750.081296 15784.922661 3594.831396 C 15434.912666 3440.434517 14805.575961 3311.628281 14111.517212 3216.089881 C 13417.458463 3119.698459 12659.529278 3055.721852 12128.978848 3048.044659 C 11597.576812 3039.514444 11293.553532 3088.136666 10625.894564 3100.931987 C 9959.087201 3114.58033 8928.644151 3093.254794 8304.41708 3018.188909 C 7680.190009 2943.976044 7461.327312 2816.022829 7359.986218 2719.631408 C 7258.645125 2623.239986 7273.97403 2559.263379 7807.930883 2546.468057 C 8341.887737 2532.819714 9393.620932 2570.352657 10580.759455 2613.003729 C 11768.749583 2655.6548 13092.145037 2703.424001 14071.491738 2812.610744 C 15050.838439 2922.650508 15686.136385 3093.254794 15992.714483 3282.625552 C 16300.144186 3471.99631 16278.854041 3680.133539 16272.8928 3731.314825 C 16267.783165 3781.643089 16278.854041 3675.01541 16283.963676 3474.555374 C 16289.073311 3274.948359 16289.073311 2981.508987 16236.273749 2752.046222 C 16182.622582 2521.730436 16076.171854 2356.244278 16008.894994 2223.172935 C 15942.469739 2090.101592 15916.069959 1988.592042 15953.540615 1948.500034 C 15990.159665 1908.408027 16091.500759 1929.733563 16134.08105 2028.684049 C 16175.809736 2127.634535 16158.777619 2303.35695 16168.996889 2287.149542 C 16180.067765 2271.795157 16218.390027 2062.804906 16064.249372 1849.549548 C 15910.108718 1636.294191 15563.505146 1417.067683 14421.501733 1179.927725 C 13278.646713 941.934746 11341.243458 686.028317 9844.120415 598.167109 C 8346.997371 509.452881 7290.154541 589.636895 6644.637324 792.655996 C 5998.268502 995.675096 5764.076899 1321.529283 5616.749091 1487.01544 C 5470.272889 1652.501598 5411.512087 1657.619726 5392.776759 1483.603355 C 5374.041431 1310.440004 5395.331576 958.142153 5432.802233 715.031045 C 5470.272889 472.772959 5523.924056 338.848594 5729.16106 227.102787 C 5934.398065 114.503958 6292.072512 24.083686 6433.439079 37.732029 C 6574.805646 50.527351 6500.715939 168.244308 6727.243089 272.312923 C 6953.770239 376.381537 7482.617457 466.801809 8115.360587 477.891088 C 8747.25211 488.127345 9483.89115 419.032609 10244.375153 442.917209 C 11004.859156 466.801809 11790.039729 584.518766 12190.294467 782.419738 C 12590.549206 979.467689 12606.729716 1256.699654 12564.149425 1523.695362 C 12520.717528 1790.69107 12419.376434 2047.45052 12312.925706 2185.639992 C 12206.474978 2324.682485 12094.063009 2346.008021 11979.096222 2164.314456 C 11864.981041 1982.620892 11747.459437 1598.761248 11432.365281 1350.532011 C 11117.271125 1102.302775 10604.604418 990.556968 9977.822529 963.260282 C 9350.189035 936.816617 8608.44036 995.675096 8088.1092 998.23416 C 7567.77804 1000.793225 7268.864395 947.905896 7141.123521 915.491082 C 7012.531041 883.076267 7055.111333 872.84001 7087.472354 1094.625582 C 7119.833375 1315.558133 7141.123521 1769.365534 7204.993958 1982.620892 C 7268.864395 2196.729271 7376.166729 2169.432585 8336.778102 2199.288335 C 9297.389474 2228.291064 11112.161491 2313.593207 12376.796143 2402.307436 C 13642.282401 2490.168643 14356.77969 2580.588915 14831.975741 2684.657529 C 15307.171792 2788.726144 15542.215001 2906.443101 15611.195073 2794.697294 C 15681.02675 2682.098465 15584.795292 2340.889892 15603.53062 2151.519135 C 15622.265948 1961.295356 15755.968063 1924.615434 15838.573828 2100.337849 C 15921.179593 2276.913285 15953.540615 2665.891058 15923.734411 2823.700022 C 15894.779813 2981.508987 15803.657989 2906.443101 15712.536166 2831.377215 " stroke="#021011" stroke-width="56.713001" stroke-opacity="1" stroke-miterlimit="22.926001"/></g><g fill="#000000" fill-opacity="1"><g transform="translate(7.875001, 21.060931)"><g><path d="M -0.234375 0.046875 C -0.328125 0.046875 -0.390625 0.0078125 -0.421875 -0.0625 C -0.460938 -0.132812 -0.460938 -0.226562 -0.421875 -0.34375 C -0.378906 -0.519531 -0.320312 -0.625 -0.25 -0.65625 C -0.1875 -0.695312 -0.0703125 -0.71875 0.09375 -0.71875 C 0.4375 -0.71875 0.703125 -0.773438 0.890625 -0.890625 C 1.085938 -1.015625 1.226562 -1.171875 1.3125 -1.359375 C 1.394531 -1.546875 1.476562 -1.785156 1.5625 -2.078125 L 3.203125 -9.140625 C 3.265625 -9.441406 3.296875 -9.679688 3.296875 -9.859375 C 3.296875 -10.046875 3.222656 -10.203125 3.078125 -10.328125 C 2.941406 -10.453125 2.703125 -10.515625 2.359375 -10.515625 L 2.265625 -10.515625 C 2.140625 -10.515625 2.054688 -10.535156 2.015625 -10.578125 C 1.972656 -10.617188 1.960938 -10.722656 1.984375 -10.890625 C 2.023438 -10.992188 2.082031 -11.082031 2.15625 -11.15625 C 2.226562 -11.238281 2.3125 -11.28125 2.40625 -11.28125 C 3.175781 -11.25 3.875 -11.234375 4.5 -11.234375 L 7.28125 -11.234375 C 8.414062 -11.234375 9.394531 -11.003906 10.21875 -10.546875 C 11.039062 -10.085938 11.625 -9.429688 11.96875 -8.578125 C 12.3125 -7.722656 12.347656 -6.710938 12.078125 -5.546875 C 11.804688 -4.335938 11.265625 -3.316406 10.453125 -2.484375 C 9.648438 -1.648438 8.710938 -1.023438 7.640625 -0.609375 C 6.566406 -0.203125 5.472656 0 4.359375 0 L 1.90625 0 C 1.269531 0 0.554688 0.015625 -0.234375 0.046875 Z M 4.78125 -0.65625 C 6.175781 -0.65625 7.289062 -1.082031 8.125 -1.9375 C 8.96875 -2.800781 9.566406 -4.003906 9.921875 -5.546875 C 10.148438 -6.523438 10.175781 -7.394531 10 -8.15625 C 9.832031 -8.925781 9.46875 -9.523438 8.90625 -9.953125 C 8.34375 -10.378906 7.601562 -10.59375 6.6875 -10.59375 L 5.28125 -10.578125 L 3.265625 -1.875 C 3.160156 -1.40625 3.226562 -1.082031 3.46875 -0.90625 C 3.71875 -0.738281 4.15625 -0.65625 4.78125 -0.65625 Z M 4.78125 -0.65625 "/></g></g></g><g fill="#000000" fill-opacity="1"><g transform="translate(20.825489, 21.060931)"><g><path d="M -1.1875 0.046875 C -1.300781 0.046875 -1.375 0.0078125 -1.40625 -0.0625 C -1.445312 -0.132812 -1.453125 -0.226562 -1.421875 -0.34375 C -1.367188 -0.519531 -1.304688 -0.625 -1.234375 -0.65625 C -1.171875 -0.695312 -1.097656 -0.71875 -1.015625 -0.71875 C -0.929688 -0.71875 -0.878906 -0.71875 -0.859375 -0.71875 C -0.503906 -0.71875 -0.222656 -0.804688 -0.015625 -0.984375 C 0.191406 -1.171875 0.375 -1.378906 0.53125 -1.609375 C 0.6875 -1.835938 0.796875 -1.992188 0.859375 -2.078125 L 5.65625 -9.453125 C 5.769531 -9.628906 5.84375 -9.769531 5.875 -9.875 C 5.914062 -10.09375 5.863281 -10.25 5.71875 -10.34375 C 5.582031 -10.4375 5.375 -10.515625 5.09375 -10.578125 C 4.894531 -10.609375 4.773438 -10.640625 4.734375 -10.671875 C 4.691406 -10.710938 4.691406 -10.816406 4.734375 -10.984375 C 4.765625 -11.117188 4.820312 -11.210938 4.90625 -11.265625 C 5 -11.316406 5.128906 -11.34375 5.296875 -11.34375 C 5.890625 -11.34375 6.347656 -11.296875 6.671875 -11.203125 C 7.003906 -11.109375 7.269531 -10.925781 7.46875 -10.65625 C 7.675781 -10.394531 7.828125 -9.992188 7.921875 -9.453125 L 9.21875 -2.078125 C 9.289062 -1.628906 9.378906 -1.289062 9.484375 -1.0625 C 9.597656 -0.84375 9.820312 -0.726562 10.15625 -0.71875 L 10.265625 -0.71875 C 10.378906 -0.71875 10.453125 -0.695312 10.484375 -0.65625 C 10.523438 -0.613281 10.535156 -0.507812 10.515625 -0.34375 C 10.492188 -0.226562 10.445312 -0.132812 10.375 -0.0625 C 10.300781 0.0078125 10.210938 0.046875 10.109375 0.046875 C 9.359375 0.015625 8.710938 0 8.171875 0 C 7.453125 0 6.707031 0.015625 5.9375 0.046875 C 5.832031 0.046875 5.757812 0.0078125 5.71875 -0.0625 C 5.6875 -0.132812 5.679688 -0.226562 5.703125 -0.34375 C 5.753906 -0.507812 5.804688 -0.613281 5.859375 -0.65625 C 5.921875 -0.695312 6.015625 -0.71875 6.140625 -0.71875 C 6.546875 -0.71875 6.835938 -0.753906 7.015625 -0.828125 C 7.203125 -0.898438 7.316406 -1.039062 7.359375 -1.25 C 7.398438 -1.40625 7.394531 -1.679688 7.34375 -2.078125 L 7.078125 -3.5625 L 2.6875 -3.5625 C 2.21875 -2.820312 1.945312 -2.390625 1.875 -2.265625 C 1.8125 -2.148438 1.78125 -2.085938 1.78125 -2.078125 C 1.53125 -1.628906 1.394531 -1.335938 1.375 -1.203125 C 1.320312 -1.003906 1.375 -0.875 1.53125 -0.8125 C 1.695312 -0.75 2.03125 -0.71875 2.53125 -0.71875 L 2.625 -0.71875 C 2.75 -0.71875 2.828125 -0.695312 2.859375 -0.65625 C 2.898438 -0.613281 2.90625 -0.507812 2.875 -0.34375 C 2.851562 -0.226562 2.804688 -0.132812 2.734375 -0.0625 C 2.660156 0.0078125 2.570312 0.046875 2.46875 0.046875 C 1.71875 0.015625 1.078125 0 0.546875 0 C 0.171875 0 -0.40625 0.015625 -1.1875 0.046875 Z M 3.203125 -4.328125 L 6.9375 -4.328125 L 6.1875 -8.90625 L 6.140625 -8.90625 Z M 3.203125 -4.328125 "/></g></g></g><g fill="#000000" fill-opacity="1"><g transform="translate(32.441791, 21.060931)"><g><path d="M -0.234375 0.046875 C -0.328125 0.046875 -0.390625 0.0078125 -0.421875 -0.0625 C -0.460938 -0.132812 -0.460938 -0.226562 -0.421875 -0.34375 C -0.378906 -0.519531 -0.320312 -0.625 -0.25 -0.65625 C -0.1875 -0.695312 -0.0703125 -0.71875 0.09375 -0.71875 C 0.4375 -0.71875 0.703125 -0.773438 0.890625 -0.890625 C 1.085938 -1.015625 1.226562 -1.171875 1.3125 -1.359375 C 1.394531 -1.546875 1.476562 -1.785156 1.5625 -2.078125 L 3.203125 -9.140625 C 3.265625 -9.441406 3.296875 -9.679688 3.296875 -9.859375 C 3.296875 -10.046875 3.222656 -10.203125 3.078125 -10.328125 C 2.941406 -10.453125 2.703125 -10.515625 2.359375 -10.515625 L 2.265625 -10.515625 C 2.140625 -10.515625 2.054688 -10.535156 2.015625 -10.578125 C 1.972656 -10.617188 1.960938 -10.722656 1.984375 -10.890625 C 2.023438 -10.992188 2.082031 -11.082031 2.15625 -11.15625 C 2.226562 -11.238281 2.3125 -11.28125 2.40625 -11.28125 C 3.175781 -11.25 3.875 -11.234375 4.5 -11.234375 C 5.207031 -11.234375 5.957031 -11.25 6.75 -11.28125 C 6.851562 -11.28125 6.921875 -11.238281 6.953125 -11.15625 C 6.992188 -11.082031 6.992188 -10.992188 6.953125 -10.890625 C 6.910156 -10.710938 6.851562 -10.601562 6.78125 -10.5625 C 6.707031 -10.53125 6.59375 -10.515625 6.4375 -10.515625 C 6.09375 -10.515625 5.820312 -10.453125 5.625 -10.328125 C 5.4375 -10.203125 5.300781 -10.046875 5.21875 -9.859375 C 5.132812 -9.679688 5.050781 -9.441406 4.96875 -9.140625 L 3.265625 -1.8125 C 3.234375 -1.5625 3.21875 -1.367188 3.21875 -1.234375 C 3.226562 -1.097656 3.304688 -0.972656 3.453125 -0.859375 C 3.609375 -0.742188 3.875 -0.695312 4.25 -0.71875 L 5.859375 -0.71875 C 6.285156 -0.726562 6.613281 -0.796875 6.84375 -0.921875 C 7.082031 -1.046875 7.296875 -1.238281 7.484375 -1.5 C 7.679688 -1.757812 7.929688 -2.1875 8.234375 -2.78125 C 8.367188 -2.988281 8.585938 -3.070312 8.890625 -3.03125 C 9.003906 -3 9.097656 -2.945312 9.171875 -2.875 C 9.242188 -2.8125 9.265625 -2.722656 9.234375 -2.609375 L 8.359375 -0.375 C 8.285156 -0.21875 8.207031 -0.113281 8.125 -0.0625 C 8.039062 -0.0195312 7.914062 0 7.75 0 L 1.921875 0 C 1.273438 0 0.554688 0.015625 -0.234375 0.046875 Z M -0.234375 0.046875 "/></g></g></g><g fill="#000000" fill-opacity="1"><g transform="translate(42.599382, 21.060931)"><g><path d="M -0.234375 0.046875 C -0.328125 0.046875 -0.390625 0.0078125 -0.421875 -0.0625 C -0.460938 -0.132812 -0.460938 -0.226562 -0.421875 -0.34375 C -0.378906 -0.519531 -0.320312 -0.625 -0.25 -0.65625 C -0.1875 -0.695312 -0.0703125 -0.71875 0.09375 -0.71875 C 0.4375 -0.71875 0.703125 -0.773438 0.890625 -0.890625 C 1.085938 -1.015625 1.226562 -1.171875 1.3125 -1.359375 C 1.394531 -1.546875 1.476562 -1.785156 1.5625 -2.078125 L 3.203125 -9.140625 C 3.265625 -9.441406 3.296875 -9.679688 3.296875 -9.859375 C 3.296875 -10.046875 3.222656 -10.203125 3.078125 -10.328125 C 2.941406 -10.453125 2.703125 -10.515625 2.359375 -10.515625 L 2.265625 -10.515625 C 2.140625 -10.515625 2.054688 -10.535156 2.015625 -10.578125 C 1.972656 -10.617188 1.960938 -10.722656 1.984375 -10.890625 C 2.023438 -10.992188 2.082031 -11.082031 2.15625 -11.15625 C 2.226562 -11.238281 2.3125 -11.28125 2.40625 -11.28125 C 3.175781 -11.25 3.875 -11.234375 4.5 -11.234375 L 10.09375 -11.234375 C 10.394531 -11.234375 10.507812 -11.085938 10.4375 -10.796875 L 9.921875 -8.3125 C 9.898438 -8.207031 9.828125 -8.117188 9.703125 -8.046875 C 9.578125 -7.984375 9.460938 -7.953125 9.359375 -7.953125 C 9.210938 -7.953125 9.09375 -7.976562 9 -8.03125 C 8.90625 -8.082031 8.867188 -8.164062 8.890625 -8.28125 C 8.929688 -8.851562 8.929688 -9.289062 8.890625 -9.59375 C 8.847656 -9.90625 8.726562 -10.132812 8.53125 -10.28125 C 8.34375 -10.425781 8.054688 -10.503906 7.671875 -10.515625 L 5.28125 -10.515625 L 4.234375 -6 L 7.453125 -6 C 7.535156 -5.988281 7.59375 -5.941406 7.625 -5.859375 C 7.65625 -5.785156 7.65625 -5.695312 7.625 -5.59375 C 7.601562 -5.5 7.5625 -5.414062 7.5 -5.34375 C 7.4375 -5.269531 7.363281 -5.234375 7.28125 -5.234375 L 4.0625 -5.234375 L 3.265625 -1.875 C 3.242188 -1.625 3.234375 -1.421875 3.234375 -1.265625 C 3.234375 -1.117188 3.304688 -0.984375 3.453125 -0.859375 C 3.609375 -0.742188 3.875 -0.695312 4.25 -0.71875 L 5.890625 -0.71875 C 6.316406 -0.726562 6.644531 -0.796875 6.875 -0.921875 C 7.113281 -1.046875 7.328125 -1.238281 7.515625 -1.5 C 7.710938 -1.757812 7.960938 -2.1875 8.265625 -2.78125 C 8.398438 -2.988281 8.625 -3.070312 8.9375 -3.03125 C 9.050781 -3 9.144531 -2.945312 9.21875 -2.875 C 9.289062 -2.8125 9.304688 -2.722656 9.265625 -2.609375 L 8.390625 -0.375 C 8.328125 -0.21875 8.253906 -0.113281 8.171875 -0.0625 C 8.085938 -0.0195312 7.960938 0 7.796875 0 L 1.921875 0 C 1.273438 0 0.554688 0.015625 -0.234375 0.046875 Z M -0.234375 0.046875 "/></g></g></g><g fill="#000000" fill-opacity="1"><g transform="translate(53.166124, 21.060931)"><g><path d="M 0.375 -8.203125 C 0.25 -8.160156 0.15625 -8.171875 0.09375 -8.234375 C 0.03125 -8.304688 0.0078125 -8.394531 0.03125 -8.5 C 0.0703125 -8.625 0.15625 -8.707031 0.28125 -8.75 C 0.820312 -8.945312 1.25 -9.171875 1.5625 -9.421875 C 1.875 -9.679688 2.070312 -9.988281 2.15625 -10.34375 C 2.195312 -10.539062 2.171875 -10.703125 2.078125 -10.828125 C 1.992188 -10.953125 1.863281 -11.085938 1.6875 -11.234375 C 1.5 -11.367188 1.363281 -11.492188 1.28125 -11.609375 C 1.195312 -11.734375 1.171875 -11.882812 1.203125 -12.0625 C 1.265625 -12.289062 1.398438 -12.492188 1.609375 -12.671875 C 1.828125 -12.859375 2.0625 -12.953125 2.3125 -12.953125 C 2.644531 -12.953125 2.921875 -12.847656 3.140625 -12.640625 C 3.367188 -12.429688 3.523438 -12.160156 3.609375 -11.828125 C 3.691406 -11.503906 3.695312 -11.175781 3.625 -10.84375 C 3.457031 -10.164062 3.070312 -9.609375 2.46875 -9.171875 C 1.863281 -8.742188 1.164062 -8.421875 0.375 -8.203125 Z M 0.375 -8.203125 "/></g></g></g><g fill="#000000" fill-opacity="1"><g transform="translate(57.417729, 21.060931)"><g><path d="M 3.359375 0.359375 C 2.117188 0.359375 1.210938 0.144531 0.640625 -0.28125 C 0.078125 -0.71875 -0.0976562 -1.359375 0.109375 -2.203125 C 0.203125 -2.628906 0.425781 -2.984375 0.78125 -3.265625 C 1.132812 -3.546875 1.546875 -3.6875 2.015625 -3.6875 C 2.285156 -3.675781 2.472656 -3.609375 2.578125 -3.484375 C 2.691406 -3.359375 2.738281 -3.238281 2.71875 -3.125 C 2.71875 -3.113281 2.648438 -3.070312 2.515625 -3 C 2.378906 -2.9375 2.242188 -2.832031 2.109375 -2.6875 C 1.984375 -2.539062 1.890625 -2.34375 1.828125 -2.09375 C 1.710938 -1.539062 1.785156 -1.113281 2.046875 -0.8125 C 2.316406 -0.507812 2.804688 -0.359375 3.515625 -0.359375 C 4.003906 -0.359375 4.453125 -0.453125 4.859375 -0.640625 C 5.273438 -0.828125 5.613281 -1.078125 5.875 -1.390625 C 6.144531 -1.710938 6.320312 -2.046875 6.40625 -2.390625 C 6.5 -2.816406 6.457031 -3.179688 6.28125 -3.484375 C 6.113281 -3.796875 5.875 -4.054688 5.5625 -4.265625 C 5.257812 -4.472656 4.832031 -4.710938 4.28125 -4.984375 C 3.644531 -5.304688 3.132812 -5.597656 2.75 -5.859375 C 2.375 -6.117188 2.082031 -6.460938 1.875 -6.890625 C 1.664062 -7.328125 1.640625 -7.863281 1.796875 -8.5 C 2.035156 -9.539062 2.5625 -10.3125 3.375 -10.8125 C 4.195312 -11.320312 5.179688 -11.578125 6.328125 -11.578125 C 7.234375 -11.578125 7.976562 -11.390625 8.5625 -11.015625 C 9.15625 -10.640625 9.363281 -10.082031 9.1875 -9.34375 C 9.082031 -8.914062 8.851562 -8.5625 8.5 -8.28125 C 8.144531 -8 7.738281 -7.859375 7.28125 -7.859375 C 7.007812 -7.878906 6.816406 -7.945312 6.703125 -8.0625 C 6.585938 -8.1875 6.539062 -8.304688 6.5625 -8.421875 C 6.570312 -8.429688 6.660156 -8.472656 6.828125 -8.546875 C 7.003906 -8.617188 7.171875 -8.722656 7.328125 -8.859375 C 7.492188 -9.003906 7.609375 -9.203125 7.671875 -9.453125 C 7.765625 -9.890625 7.671875 -10.234375 7.390625 -10.484375 C 7.109375 -10.734375 6.707031 -10.859375 6.1875 -10.859375 C 5.46875 -10.859375 4.878906 -10.6875 4.421875 -10.34375 C 3.972656 -10.007812 3.691406 -9.59375 3.578125 -9.09375 C 3.484375 -8.675781 3.515625 -8.328125 3.671875 -8.046875 C 3.828125 -7.773438 4.128906 -7.5 4.578125 -7.21875 C 4.929688 -7.007812 5.320312 -6.796875 5.75 -6.578125 C 6.425781 -6.234375 6.953125 -5.921875 7.328125 -5.640625 C 7.710938 -5.359375 8 -4.984375 8.1875 -4.515625 C 8.382812 -4.054688 8.398438 -3.484375 8.234375 -2.796875 C 8.109375 -2.203125 7.800781 -1.664062 7.3125 -1.1875 C 6.820312 -0.707031 6.226562 -0.328125 5.53125 -0.046875 C 4.84375 0.222656 4.117188 0.359375 3.359375 0.359375 Z M 3.359375 0.359375 "/></g></g></g><g fill="#000000" fill-opacity="1"><g transform="translate(7.582032, 32.270913)"><g><path d="M 4.640625 -3 L 1.6875 -3 L 0.03125 0 L -0.640625 0 L 4.09375 -8.453125 L 4.484375 -8.453125 L 5.640625 0 L 5.03125 0 Z M 4.5625 -3.53125 L 4.34375 -5.203125 C 4.226562 -6.128906 4.15625 -6.898438 4.125 -7.515625 C 4.007812 -7.273438 3.882812 -7.023438 3.75 -6.765625 C 3.613281 -6.503906 3.023438 -5.425781 1.984375 -3.53125 Z M 4.5625 -3.53125 "/></g></g></g><g fill="#000000" fill-opacity="1"><g transform="translate(13.678036, 32.270913)"><g><path d="M 8.03125 -8.421875 L 6.84375 -2.796875 C 6.625 -1.753906 6.242188 -1.007812 5.703125 -0.5625 C 5.171875 -0.113281 4.453125 0.109375 3.546875 0.109375 C 1.859375 0.109375 1.015625 -0.65625 1.015625 -2.1875 C 1.015625 -2.507812 1.066406 -2.898438 1.171875 -3.359375 L 2.234375 -8.421875 L 2.828125 -8.421875 L 1.71875 -3.25 C 1.644531 -2.90625 1.609375 -2.550781 1.609375 -2.1875 C 1.609375 -1 2.265625 -0.40625 3.578125 -0.40625 C 4.328125 -0.40625 4.914062 -0.585938 5.34375 -0.953125 C 5.78125 -1.328125 6.085938 -1.941406 6.265625 -2.796875 L 7.453125 -8.421875 Z M 8.03125 -8.421875 "/></g></g></g><g fill="#000000" fill-opacity="1"><g transform="translate(21.564274, 32.270913)"><g><path d="M 2.515625 0 L 1.9375 0 L 3.59375 -7.875 L 1.109375 -7.875 L 1.234375 -8.421875 L 6.828125 -8.421875 L 6.71875 -7.875 L 4.1875 -7.875 Z M 2.515625 0 "/></g></g></g><g fill="#000000" fill-opacity="1"><g transform="translate(27.234306, 32.270913)"><g><path d="M 8.078125 -5.25 C 8.078125 -4.269531 7.894531 -3.34375 7.53125 -2.46875 C 7.175781 -1.601562 6.691406 -0.957031 6.078125 -0.53125 C 5.472656 -0.101562 4.773438 0.109375 3.984375 0.109375 C 3.023438 0.109375 2.285156 -0.171875 1.765625 -0.734375 C 1.242188 -1.304688 0.984375 -2.132812 0.984375 -3.21875 C 0.984375 -4.226562 1.160156 -5.144531 1.515625 -5.96875 C 1.878906 -6.800781 2.367188 -7.4375 2.984375 -7.875 C 3.609375 -8.320312 4.328125 -8.546875 5.140625 -8.546875 C 6.085938 -8.546875 6.8125 -8.257812 7.3125 -7.6875 C 7.820312 -7.113281 8.078125 -6.300781 8.078125 -5.25 Z M 5.0625 -8 C 4.394531 -8 3.800781 -7.804688 3.28125 -7.421875 C 2.769531 -7.035156 2.359375 -6.460938 2.046875 -5.703125 C 1.742188 -4.941406 1.59375 -4.140625 1.59375 -3.296875 C 1.59375 -2.359375 1.800781 -1.644531 2.21875 -1.15625 C 2.632812 -0.664062 3.25 -0.421875 4.0625 -0.421875 C 4.707031 -0.421875 5.28125 -0.609375 5.78125 -0.984375 C 6.289062 -1.359375 6.695312 -1.929688 7 -2.703125 C 7.300781 -3.484375 7.453125 -4.3125 7.453125 -5.1875 C 7.453125 -6.113281 7.25 -6.8125 6.84375 -7.28125 C 6.445312 -7.757812 5.851562 -8 5.0625 -8 Z M 5.0625 -8 "/></g></g></g><g fill="#000000" fill-opacity="1"><g transform="translate(35.661643, 32.270913)"><g/></g></g><g fill="#000000" fill-opacity="1"><g transform="translate(38.724035, 32.270913)"><g><path d="M 2.375 -8.421875 L 4.5625 -8.421875 C 5.289062 -8.421875 5.847656 -8.257812 6.234375 -7.9375 C 6.617188 -7.613281 6.8125 -7.148438 6.8125 -6.546875 C 6.8125 -5.960938 6.632812 -5.484375 6.28125 -5.109375 C 5.9375 -4.742188 5.453125 -4.507812 4.828125 -4.40625 L 4.828125 -4.375 C 5.304688 -4.257812 5.664062 -4.039062 5.90625 -3.71875 C 6.15625 -3.40625 6.28125 -3.015625 6.28125 -2.546875 C 6.28125 -1.753906 6.007812 -1.128906 5.46875 -0.671875 C 4.925781 -0.222656 4.175781 0 3.21875 0 L 0.59375 0 Z M 2.171875 -4.671875 L 3.765625 -4.671875 C 4.554688 -4.671875 5.15625 -4.828125 5.5625 -5.140625 C 5.976562 -5.453125 6.1875 -5.910156 6.1875 -6.515625 C 6.1875 -6.960938 6.035156 -7.304688 5.734375 -7.546875 C 5.441406 -7.785156 5.003906 -7.90625 4.421875 -7.90625 L 2.859375 -7.90625 Z M 2.0625 -4.15625 L 1.28125 -0.515625 L 3.25 -0.515625 C 4.019531 -0.515625 4.613281 -0.679688 5.03125 -1.015625 C 5.445312 -1.359375 5.65625 -1.851562 5.65625 -2.5 C 5.65625 -3.050781 5.484375 -3.460938 5.140625 -3.734375 C 4.796875 -4.015625 4.269531 -4.15625 3.5625 -4.15625 Z M 2.0625 -4.15625 "/></g></g></g><g fill="#000000" fill-opacity="1"><g transform="translate(45.643201, 32.270913)"><g><path d="M 8.078125 -5.25 C 8.078125 -4.269531 7.894531 -3.34375 7.53125 -2.46875 C 7.175781 -1.601562 6.691406 -0.957031 6.078125 -0.53125 C 5.472656 -0.101562 4.773438 0.109375 3.984375 0.109375 C 3.023438 0.109375 2.285156 -0.171875 1.765625 -0.734375 C 1.242188 -1.304688 0.984375 -2.132812 0.984375 -3.21875 C 0.984375 -4.226562 1.160156 -5.144531 1.515625 -5.96875 C 1.878906 -6.800781 2.367188 -7.4375 2.984375 -7.875 C 3.609375 -8.320312 4.328125 -8.546875 5.140625 -8.546875 C 6.085938 -8.546875 6.8125 -8.257812 7.3125 -7.6875 C 7.820312 -7.113281 8.078125 -6.300781 8.078125 -5.25 Z M 5.0625 -8 C 4.394531 -8 3.800781 -7.804688 3.28125 -7.421875 C 2.769531 -7.035156 2.359375 -6.460938 2.046875 -5.703125 C 1.742188 -4.941406 1.59375 -4.140625 1.59375 -3.296875 C 1.59375 -2.359375 1.800781 -1.644531 2.21875 -1.15625 C 2.632812 -0.664062 3.25 -0.421875 4.0625 -0.421875 C 4.707031 -0.421875 5.28125 -0.609375 5.78125 -0.984375 C 6.289062 -1.359375 6.695312 -1.929688 7 -2.703125 C 7.300781 -3.484375 7.453125 -4.3125 7.453125 -5.1875 C 7.453125 -6.113281 7.25 -6.8125 6.84375 -7.28125 C 6.445312 -7.757812 5.851562 -8 5.0625 -8 Z M 5.0625 -8 "/></g></g></g><g fill="#000000" fill-opacity="1"><g transform="translate(54.070538, 32.270913)"><g><path d="M 7.421875 -5.0625 C 7.421875 -4.09375 7.207031 -3.207031 6.78125 -2.40625 C 6.363281 -1.601562 5.785156 -1 5.046875 -0.59375 C 4.316406 -0.195312 3.460938 0 2.484375 0 L 0.59375 0 L 2.375 -8.421875 L 4.125 -8.421875 C 5.207031 -8.421875 6.023438 -8.132812 6.578125 -7.5625 C 7.140625 -7 7.421875 -6.164062 7.421875 -5.0625 Z M 2.484375 -0.515625 C 3.347656 -0.515625 4.101562 -0.695312 4.75 -1.0625 C 5.394531 -1.425781 5.894531 -1.953125 6.25 -2.640625 C 6.601562 -3.335938 6.78125 -4.128906 6.78125 -5.015625 C 6.78125 -6.929688 5.867188 -7.890625 4.046875 -7.890625 L 2.859375 -7.890625 L 1.265625 -0.515625 Z M 2.484375 -0.515625 "/></g></g></g><g fill="#000000" fill-opacity="1"><g transform="translate(61.841648, 32.270913)"><g><path d="M 2.84375 -3.71875 L 5.984375 -8.421875 L 6.65625 -8.421875 L 3.015625 -3.046875 L 2.390625 0 L 1.796875 0 L 2.484375 -3.140625 L 1.109375 -8.421875 L 1.6875 -8.421875 Z M 2.84375 -3.71875 "/></g></g></g></svg>