<svg xmlns="http://www.w3.org/2000/svg" xmlns:xlink="http://www.w3.org/1999/xlink" width="180" zoomAndPan="magnify" viewBox="0 0 135 44.999999" height="60" preserveAspectRatio="xMidYMid meet" version="1.0"><defs><g/></defs><g fill="#de3820" fill-opacity="1"><g transform="translate(1.08006, 30.166009)"><g><path d="M -0.515625 0.125 C -0.722656 0.125 -0.863281 0.0351562 -0.9375 -0.140625 C -1.019531 -0.316406 -1.023438 -0.523438 -0.953125 -0.765625 C -0.847656 -1.160156 -0.722656 -1.394531 -0.578125 -1.46875 C -0.429688 -1.550781 -0.171875 -1.59375 0.203125 -1.59375 C 0.972656 -1.59375 1.578125 -1.734375 2.015625 -2.015625 C 2.453125 -2.296875 2.765625 -2.640625 2.953125 -3.046875 C 3.140625 -3.460938 3.328125 -4.003906 3.515625 -4.671875 L 7.1875 -20.5 C 7.320312 -21.164062 7.390625 -21.703125 7.390625 -22.109375 C 7.390625 -22.523438 7.234375 -22.875 6.921875 -23.15625 C 6.617188 -23.4375 6.082031 -23.578125 5.3125 -23.578125 L 5.078125 -23.578125 C 4.804688 -23.578125 4.625 -23.625 4.53125 -23.71875 C 4.4375 -23.8125 4.414062 -24.039062 4.46875 -24.40625 C 4.550781 -24.644531 4.671875 -24.851562 4.828125 -25.03125 C 4.992188 -25.207031 5.179688 -25.296875 5.390625 -25.296875 C 7.117188 -25.210938 8.6875 -25.171875 10.09375 -25.171875 L 16.328125 -25.171875 C 18.878906 -25.171875 21.078125 -24.65625 22.921875 -23.625 C 24.773438 -22.601562 26.085938 -21.132812 26.859375 -19.21875 C 27.628906 -17.3125 27.707031 -15.054688 27.09375 -12.453125 C 26.476562 -9.734375 25.265625 -7.4375 23.453125 -5.5625 C 21.648438 -3.6875 19.546875 -2.289062 17.140625 -1.375 C 14.734375 -0.457031 12.28125 0 9.78125 0 L 4.28125 0 C 2.863281 0 1.265625 0.0390625 -0.515625 0.125 Z M 10.734375 -1.46875 C 13.847656 -1.46875 16.347656 -2.429688 18.234375 -4.359375 C 20.117188 -6.296875 21.460938 -8.992188 22.265625 -12.453125 C 22.773438 -14.628906 22.832031 -16.570312 22.4375 -18.28125 C 22.050781 -20 21.226562 -21.335938 19.96875 -22.296875 C 18.707031 -23.253906 17.050781 -23.734375 15 -23.734375 L 11.859375 -23.6875 L 7.34375 -4.1875 C 7.101562 -3.144531 7.253906 -2.429688 7.796875 -2.046875 C 8.347656 -1.660156 9.328125 -1.46875 10.734375 -1.46875 Z M 10.734375 -1.46875 "/></g></g></g><g fill="#de3820" fill-opacity="1"><g transform="translate(30.116506, 30.166009)"><g><path d="M -2.671875 0.125 C -2.910156 0.125 -3.066406 0.0351562 -3.140625 -0.140625 C -3.222656 -0.316406 -3.238281 -0.523438 -3.1875 -0.765625 C -3.050781 -1.160156 -2.910156 -1.394531 -2.765625 -1.46875 C -2.617188 -1.550781 -2.453125 -1.59375 -2.265625 -1.59375 C -2.078125 -1.59375 -1.957031 -1.59375 -1.90625 -1.59375 C -1.113281 -1.59375 -0.484375 -1.796875 -0.015625 -2.203125 C 0.453125 -2.617188 0.859375 -3.085938 1.203125 -3.609375 C 1.546875 -4.128906 1.785156 -4.484375 1.921875 -4.671875 L 12.6875 -21.1875 C 12.957031 -21.582031 13.117188 -21.898438 13.171875 -22.140625 C 13.273438 -22.617188 13.164062 -22.960938 12.84375 -23.171875 C 12.53125 -23.390625 12.054688 -23.5625 11.421875 -23.6875 C 10.992188 -23.769531 10.734375 -23.847656 10.640625 -23.921875 C 10.546875 -24.003906 10.539062 -24.234375 10.625 -24.609375 C 10.695312 -24.929688 10.832031 -25.144531 11.03125 -25.25 C 11.226562 -25.351562 11.515625 -25.40625 11.890625 -25.40625 C 13.222656 -25.40625 14.253906 -25.304688 14.984375 -25.109375 C 15.710938 -24.910156 16.300781 -24.507812 16.75 -23.90625 C 17.207031 -23.3125 17.546875 -22.40625 17.765625 -21.1875 L 20.671875 -4.671875 C 20.828125 -3.660156 21.03125 -2.898438 21.28125 -2.390625 C 21.539062 -1.890625 22.039062 -1.625 22.78125 -1.59375 L 23.03125 -1.59375 C 23.289062 -1.59375 23.457031 -1.546875 23.53125 -1.453125 C 23.613281 -1.359375 23.628906 -1.128906 23.578125 -0.765625 C 23.523438 -0.523438 23.421875 -0.316406 23.265625 -0.140625 C 23.109375 0.0351562 22.910156 0.125 22.671875 0.125 C 20.992188 0.0390625 19.539062 0 18.3125 0 C 16.71875 0 15.054688 0.0390625 13.328125 0.125 C 13.085938 0.125 12.925781 0.0351562 12.84375 -0.140625 C 12.769531 -0.316406 12.757812 -0.523438 12.8125 -0.765625 C 12.914062 -1.128906 13.035156 -1.359375 13.171875 -1.453125 C 13.304688 -1.546875 13.503906 -1.59375 13.765625 -1.59375 C 14.671875 -1.59375 15.328125 -1.675781 15.734375 -1.84375 C 16.148438 -2.019531 16.410156 -2.335938 16.515625 -2.796875 C 16.597656 -3.140625 16.585938 -3.765625 16.484375 -4.671875 L 15.890625 -7.984375 L 6.03125 -7.984375 C 4.988281 -6.328125 4.390625 -5.363281 4.234375 -5.09375 C 4.078125 -4.832031 4 -4.691406 4 -4.671875 C 3.4375 -3.660156 3.128906 -3.007812 3.078125 -2.71875 C 2.972656 -2.257812 3.097656 -1.957031 3.453125 -1.8125 C 3.816406 -1.664062 4.554688 -1.59375 5.671875 -1.59375 L 5.90625 -1.59375 C 6.175781 -1.59375 6.347656 -1.546875 6.421875 -1.453125 C 6.503906 -1.359375 6.519531 -1.128906 6.46875 -0.765625 C 6.414062 -0.523438 6.304688 -0.316406 6.140625 -0.140625 C 5.984375 0.0351562 5.785156 0.125 5.546875 0.125 C 3.867188 0.0390625 2.4375 0 1.25 0 C 0.394531 0 -0.910156 0.0390625 -2.671875 0.125 Z M 7.1875 -9.6875 L 15.5625 -9.6875 L 13.890625 -19.9375 L 13.765625 -19.9375 Z M 7.1875 -9.6875 "/></g></g></g><g fill="#de3820" fill-opacity="1"><g transform="translate(56.161559, 30.166009)"><g><path d="M -0.515625 0.125 C -0.722656 0.125 -0.863281 0.0351562 -0.9375 -0.140625 C -1.019531 -0.316406 -1.023438 -0.523438 -0.953125 -0.765625 C -0.847656 -1.160156 -0.722656 -1.394531 -0.578125 -1.46875 C -0.429688 -1.550781 -0.171875 -1.59375 0.203125 -1.59375 C 0.972656 -1.59375 1.578125 -1.734375 2.015625 -2.015625 C 2.453125 -2.296875 2.765625 -2.640625 2.953125 -3.046875 C 3.140625 -3.460938 3.328125 -4.003906 3.515625 -4.671875 L 7.1875 -20.5 C 7.320312 -21.164062 7.390625 -21.703125 7.390625 -22.109375 C 7.390625 -22.523438 7.234375 -22.875 6.921875 -23.15625 C 6.617188 -23.4375 6.082031 -23.578125 5.3125 -23.578125 L 5.078125 -23.578125 C 4.804688 -23.578125 4.625 -23.625 4.53125 -23.71875 C 4.4375 -23.8125 4.414062 -24.039062 4.46875 -24.40625 C 4.550781 -24.644531 4.671875 -24.851562 4.828125 -25.03125 C 4.992188 -25.207031 5.179688 -25.296875 5.390625 -25.296875 C 7.117188 -25.210938 8.6875 -25.171875 10.09375 -25.171875 C 11.695312 -25.171875 13.375 -25.210938 15.125 -25.296875 C 15.363281 -25.296875 15.519531 -25.207031 15.59375 -25.03125 C 15.675781 -24.851562 15.679688 -24.644531 15.609375 -24.40625 C 15.492188 -24.007812 15.359375 -23.769531 15.203125 -23.6875 C 15.046875 -23.613281 14.796875 -23.578125 14.453125 -23.578125 C 13.679688 -23.578125 13.070312 -23.4375 12.625 -23.15625 C 12.1875 -22.875 11.875 -22.523438 11.6875 -22.109375 C 11.507812 -21.703125 11.328125 -21.164062 11.140625 -20.5 L 7.34375 -4.0625 C 7.269531 -3.507812 7.238281 -3.078125 7.25 -2.765625 C 7.257812 -2.460938 7.429688 -2.1875 7.765625 -1.9375 C 8.097656 -1.6875 8.691406 -1.570312 9.546875 -1.59375 L 13.125 -1.59375 C 14.082031 -1.625 14.828125 -1.773438 15.359375 -2.046875 C 15.890625 -2.328125 16.367188 -2.757812 16.796875 -3.34375 C 17.222656 -3.9375 17.78125 -4.894531 18.46875 -6.21875 C 18.769531 -6.695312 19.265625 -6.882812 19.953125 -6.78125 C 20.191406 -6.726562 20.394531 -6.617188 20.5625 -6.453125 C 20.738281 -6.296875 20.785156 -6.097656 20.703125 -5.859375 L 18.75 -0.84375 C 18.59375 -0.488281 18.421875 -0.257812 18.234375 -0.15625 C 18.046875 -0.0507812 17.769531 0 17.40625 0 L 4.3125 0 C 2.875 0 1.265625 0.0390625 -0.515625 0.125 Z M -0.515625 0.125 "/></g></g></g><g fill="#de3820" fill-opacity="1"><g transform="translate(78.936016, 30.166009)"><g><path d="M -0.515625 0.125 C -0.722656 0.125 -0.863281 0.0351562 -0.9375 -0.140625 C -1.019531 -0.316406 -1.023438 -0.523438 -0.953125 -0.765625 C -0.847656 -1.160156 -0.722656 -1.394531 -0.578125 -1.46875 C -0.429688 -1.550781 -0.171875 -1.59375 0.203125 -1.59375 C 0.972656 -1.59375 1.578125 -1.734375 2.015625 -2.015625 C 2.453125 -2.296875 2.765625 -2.640625 2.953125 -3.046875 C 3.140625 -3.460938 3.328125 -4.003906 3.515625 -4.671875 L 7.1875 -20.5 C 7.320312 -21.164062 7.390625 -21.703125 7.390625 -22.109375 C 7.390625 -22.523438 7.234375 -22.875 6.921875 -23.15625 C 6.617188 -23.4375 6.082031 -23.578125 5.3125 -23.578125 L 5.078125 -23.578125 C 4.804688 -23.578125 4.625 -23.625 4.53125 -23.71875 C 4.4375 -23.8125 4.414062 -24.039062 4.46875 -24.40625 C 4.550781 -24.644531 4.671875 -24.851562 4.828125 -25.03125 C 4.992188 -25.207031 5.179688 -25.296875 5.390625 -25.296875 C 7.117188 -25.210938 8.6875 -25.171875 10.09375 -25.171875 L 22.625 -25.171875 C 23.3125 -25.171875 23.578125 -24.851562 23.421875 -24.21875 L 22.265625 -18.625 C 22.210938 -18.382812 22.046875 -18.191406 21.765625 -18.046875 C 21.484375 -17.898438 21.222656 -17.828125 20.984375 -17.828125 C 20.671875 -17.828125 20.40625 -17.882812 20.1875 -18 C 19.976562 -18.125 19.898438 -18.304688 19.953125 -18.546875 C 20.035156 -19.847656 20.03125 -20.835938 19.9375 -21.515625 C 19.84375 -22.191406 19.582031 -22.695312 19.15625 -23.03125 C 18.726562 -23.363281 18.078125 -23.546875 17.203125 -23.578125 L 11.859375 -23.578125 L 9.5 -13.4375 L 16.71875 -13.4375 C 16.90625 -13.414062 17.03125 -13.316406 17.09375 -13.140625 C 17.164062 -12.972656 17.175781 -12.769531 17.125 -12.53125 C 17.070312 -12.3125 16.96875 -12.125 16.8125 -11.96875 C 16.664062 -11.8125 16.503906 -11.734375 16.328125 -11.734375 L 9.109375 -11.734375 L 7.34375 -4.1875 C 7.289062 -3.625 7.265625 -3.175781 7.265625 -2.84375 C 7.265625 -2.519531 7.429688 -2.222656 7.765625 -1.953125 C 8.097656 -1.691406 8.691406 -1.570312 9.546875 -1.59375 L 13.203125 -1.59375 C 14.160156 -1.625 14.90625 -1.773438 15.4375 -2.046875 C 15.976562 -2.328125 16.457031 -2.757812 16.875 -3.34375 C 17.300781 -3.9375 17.863281 -4.894531 18.5625 -6.21875 C 18.851562 -6.695312 19.34375 -6.882812 20.03125 -6.78125 C 20.300781 -6.726562 20.515625 -6.617188 20.671875 -6.453125 C 20.828125 -6.296875 20.867188 -6.097656 20.796875 -5.859375 L 18.828125 -0.84375 C 18.671875 -0.488281 18.5 -0.257812 18.3125 -0.15625 C 18.125 -0.0507812 17.847656 0 17.484375 0 L 4.3125 0 C 2.875 0 1.265625 0.0390625 -0.515625 0.125 Z M -0.515625 0.125 "/></g></g></g><g fill="#de3820" fill-opacity="1"><g transform="translate(102.627834, 30.166009)"><g><path d="M 0.84375 -18.390625 C 0.582031 -18.285156 0.375 -18.3125 0.21875 -18.46875 C 0.0703125 -18.625 0.03125 -18.820312 0.09375 -19.0625 C 0.164062 -19.332031 0.347656 -19.519531 0.640625 -19.625 C 1.867188 -20.050781 2.828125 -20.550781 3.515625 -21.125 C 4.203125 -21.695312 4.640625 -22.378906 4.828125 -23.171875 C 4.941406 -23.628906 4.894531 -23.992188 4.6875 -24.265625 C 4.488281 -24.546875 4.191406 -24.847656 3.796875 -25.171875 C 3.367188 -25.492188 3.0625 -25.785156 2.875 -26.046875 C 2.6875 -26.316406 2.632812 -26.648438 2.71875 -27.046875 C 2.851562 -27.546875 3.160156 -28.003906 3.640625 -28.421875 C 4.117188 -28.835938 4.632812 -29.046875 5.1875 -29.046875 C 5.9375 -29.046875 6.5625 -28.8125 7.0625 -28.34375 C 7.570312 -27.875 7.921875 -27.265625 8.109375 -26.515625 C 8.296875 -25.773438 8.304688 -25.035156 8.140625 -24.296875 C 7.773438 -22.773438 6.910156 -21.53125 5.546875 -20.5625 C 4.191406 -19.59375 2.625 -18.867188 0.84375 -18.390625 Z M 0.84375 -18.390625 "/></g></g></g><g fill="#de3820" fill-opacity="1"><g transform="translate(112.160407, 30.166009)"><g><path d="M 7.546875 0.796875 C 4.753906 0.796875 2.722656 0.3125 1.453125 -0.65625 C 0.191406 -1.625 -0.207031 -3.054688 0.25 -4.953125 C 0.457031 -5.898438 0.957031 -6.6875 1.75 -7.3125 C 2.550781 -7.9375 3.472656 -8.25 4.515625 -8.25 C 5.128906 -8.226562 5.5625 -8.078125 5.8125 -7.796875 C 6.0625 -7.515625 6.160156 -7.253906 6.109375 -7.015625 C 6.109375 -6.992188 5.953125 -6.898438 5.640625 -6.734375 C 5.335938 -6.578125 5.039062 -6.335938 4.75 -6.015625 C 4.457031 -5.703125 4.242188 -5.265625 4.109375 -4.703125 C 3.847656 -3.453125 4.015625 -2.488281 4.609375 -1.8125 C 5.210938 -1.132812 6.3125 -0.796875 7.90625 -0.796875 C 9 -0.796875 10.003906 -1.007812 10.921875 -1.4375 C 11.835938 -1.863281 12.59375 -2.425781 13.1875 -3.125 C 13.789062 -3.832031 14.1875 -4.570312 14.375 -5.34375 C 14.582031 -6.300781 14.492188 -7.125 14.109375 -7.8125 C 13.722656 -8.507812 13.179688 -9.085938 12.484375 -9.546875 C 11.796875 -10.015625 10.84375 -10.554688 9.625 -11.171875 C 8.1875 -11.890625 7.039062 -12.539062 6.1875 -13.125 C 5.332031 -13.707031 4.671875 -14.484375 4.203125 -15.453125 C 3.742188 -16.421875 3.6875 -17.625 4.03125 -19.0625 C 4.5625 -21.375 5.742188 -23.101562 7.578125 -24.25 C 9.421875 -25.394531 11.628906 -25.96875 14.203125 -25.96875 C 16.222656 -25.96875 17.890625 -25.539062 19.203125 -24.6875 C 20.523438 -23.84375 20.988281 -22.59375 20.59375 -20.9375 C 20.375 -19.976562 19.863281 -19.1875 19.0625 -18.5625 C 18.269531 -17.9375 17.359375 -17.625 16.328125 -17.625 C 15.710938 -17.65625 15.273438 -17.8125 15.015625 -18.09375 C 14.765625 -18.375 14.671875 -18.632812 14.734375 -18.875 C 14.753906 -18.894531 14.957031 -18.984375 15.34375 -19.140625 C 15.726562 -19.304688 16.097656 -19.546875 16.453125 -19.859375 C 16.816406 -20.179688 17.066406 -20.625 17.203125 -21.1875 C 17.410156 -22.164062 17.203125 -22.929688 16.578125 -23.484375 C 15.953125 -24.046875 15.054688 -24.328125 13.890625 -24.328125 C 12.265625 -24.328125 10.945312 -23.945312 9.9375 -23.1875 C 8.925781 -22.4375 8.289062 -21.503906 8.03125 -20.390625 C 7.8125 -19.453125 7.878906 -18.671875 8.234375 -18.046875 C 8.597656 -17.421875 9.273438 -16.804688 10.265625 -16.203125 C 11.054688 -15.722656 11.929688 -15.242188 12.890625 -14.765625 C 14.410156 -13.992188 15.59375 -13.285156 16.4375 -12.640625 C 17.289062 -12.003906 17.9375 -11.164062 18.375 -10.125 C 18.8125 -9.09375 18.84375 -7.804688 18.46875 -6.265625 C 18.175781 -4.929688 17.484375 -3.722656 16.390625 -2.640625 C 15.304688 -1.566406 13.984375 -0.722656 12.421875 -0.109375 C 10.867188 0.492188 9.242188 0.796875 7.546875 0.796875 Z M 7.546875 0.796875 "/></g></g></g><g fill="#042651" fill-opacity="1"><g transform="translate(7.20268, 41.740082)"><g><path d="M -1.484375 0.09375 C -1.535156 -0.03125 -1.539062 -0.175781 -1.5 -0.34375 L -1.5 -0.390625 C -1.425781 -0.617188 -1.316406 -0.773438 -1.171875 -0.859375 C -1.140625 -0.878906 -1.101562 -0.894531 -1.0625 -0.90625 C -1.019531 -0.914062 -0.976562 -0.921875 -0.9375 -0.921875 C -0.90625 -0.929688 -0.867188 -0.9375 -0.828125 -0.9375 L -0.6875 -0.9375 C -0.488281 -0.9375 -0.34375 -0.984375 -0.25 -1.078125 C -0.101562 -1.210938 0.0195312 -1.359375 0.125 -1.515625 C 0.25 -1.703125 0.335938 -1.832031 0.390625 -1.90625 L 0.859375 -2.609375 L 4.3125 -7.90625 C 4.332031 -7.925781 4.347656 -7.945312 4.359375 -7.96875 C 4.367188 -7.988281 4.378906 -8.007812 4.390625 -8.03125 C 4.398438 -8.050781 4.40625 -8.066406 4.40625 -8.078125 C 4.414062 -8.097656 4.421875 -8.109375 4.421875 -8.109375 C 4.429688 -8.117188 4.4375 -8.125 4.4375 -8.125 L 4.4375 -8.15625 C 4.351562 -8.1875 4.234375 -8.21875 4.078125 -8.25 C 3.859375 -8.300781 3.707031 -8.359375 3.625 -8.421875 C 3.582031 -8.460938 3.550781 -8.5 3.53125 -8.53125 C 3.507812 -8.570312 3.492188 -8.609375 3.484375 -8.640625 C 3.472656 -8.679688 3.46875 -8.722656 3.46875 -8.765625 C 3.46875 -8.804688 3.46875 -8.835938 3.46875 -8.859375 C 3.46875 -8.890625 3.472656 -8.921875 3.484375 -8.953125 C 3.503906 -8.992188 3.515625 -9.019531 3.515625 -9.03125 C 3.535156 -9.125 3.570312 -9.210938 3.625 -9.296875 C 3.675781 -9.378906 3.75 -9.445312 3.84375 -9.5 C 3.96875 -9.5625 4.128906 -9.59375 4.328125 -9.59375 C 4.835938 -9.59375 5.242188 -9.554688 5.546875 -9.484375 C 5.890625 -9.390625 6.164062 -9.203125 6.375 -8.921875 C 6.445312 -8.816406 6.507812 -8.703125 6.5625 -8.578125 C 6.625 -8.460938 6.671875 -8.335938 6.703125 -8.203125 C 6.742188 -8.066406 6.78125 -7.914062 6.8125 -7.75 L 7.875 -1.75 C 7.925781 -1.425781 7.988281 -1.1875 8.0625 -1.03125 C 8.09375 -0.976562 8.164062 -0.945312 8.28125 -0.9375 L 8.375 -0.9375 C 8.570312 -0.9375 8.722656 -0.878906 8.828125 -0.765625 C 8.910156 -0.671875 8.953125 -0.566406 8.953125 -0.453125 C 8.960938 -0.347656 8.957031 -0.269531 8.9375 -0.21875 L 8.921875 -0.203125 C 8.910156 -0.128906 8.882812 -0.0625 8.84375 0 C 8.8125 0.0703125 8.769531 0.132812 8.71875 0.1875 C 8.59375 0.332031 8.429688 0.40625 8.234375 0.40625 L 8.21875 0.40625 C 7.613281 0.375 7.09375 0.359375 6.65625 0.359375 C 6.082031 0.359375 5.484375 0.375 4.859375 0.40625 L 4.84375 0.40625 C 4.75 0.40625 4.648438 0.378906 4.546875 0.328125 C 4.453125 0.273438 4.382812 0.195312 4.34375 0.09375 C 4.28125 -0.03125 4.269531 -0.175781 4.3125 -0.34375 L 4.3125 -0.375 C 4.332031 -0.457031 4.347656 -0.515625 4.359375 -0.546875 C 4.367188 -0.578125 4.394531 -0.617188 4.4375 -0.671875 C 4.476562 -0.734375 4.523438 -0.785156 4.578125 -0.828125 C 4.691406 -0.898438 4.832031 -0.9375 5 -0.9375 C 5.28125 -0.9375 5.472656 -0.960938 5.578125 -1.015625 C 5.597656 -1.023438 5.613281 -1.03125 5.625 -1.03125 C 5.632812 -1.039062 5.644531 -1.066406 5.65625 -1.109375 C 5.65625 -1.109375 5.65625 -1.113281 5.65625 -1.125 C 5.65625 -1.144531 5.65625 -1.175781 5.65625 -1.21875 C 5.65625 -1.257812 5.65625 -1.296875 5.65625 -1.328125 C 5.65625 -1.367188 5.648438 -1.414062 5.640625 -1.46875 C 5.640625 -1.53125 5.632812 -1.585938 5.625 -1.640625 L 5.46875 -2.53125 L 2.390625 -2.53125 C 2.078125 -2.039062 1.894531 -1.753906 1.84375 -1.671875 C 1.84375 -1.660156 1.835938 -1.644531 1.828125 -1.625 L 1.8125 -1.609375 C 1.800781 -1.585938 1.789062 -1.566406 1.78125 -1.546875 C 1.769531 -1.535156 1.765625 -1.523438 1.765625 -1.515625 C 1.722656 -1.429688 1.679688 -1.351562 1.640625 -1.28125 C 1.597656 -1.207031 1.566406 -1.144531 1.546875 -1.09375 C 1.523438 -1.050781 1.507812 -1.007812 1.5 -0.96875 C 1.632812 -0.945312 1.820312 -0.9375 2.0625 -0.9375 L 2.140625 -0.9375 C 2.347656 -0.9375 2.503906 -0.878906 2.609375 -0.765625 C 2.691406 -0.671875 2.734375 -0.566406 2.734375 -0.453125 C 2.734375 -0.347656 2.726562 -0.269531 2.71875 -0.21875 L 2.703125 -0.203125 C 2.671875 -0.046875 2.601562 0.0820312 2.5 0.1875 C 2.4375 0.257812 2.359375 0.3125 2.265625 0.34375 C 2.179688 0.382812 2.097656 0.40625 2.015625 0.40625 L 2 0.40625 C 1.394531 0.375 0.878906 0.359375 0.453125 0.359375 C 0.367188 0.359375 0.28125 0.359375 0.1875 0.359375 C 0.09375 0.359375 -0.0078125 0.359375 -0.125 0.359375 C -0.238281 0.367188 -0.363281 0.375 -0.5 0.375 C -0.632812 0.382812 -0.785156 0.394531 -0.953125 0.40625 L -0.96875 0.40625 C -1.0625 0.40625 -1.15625 0.378906 -1.25 0.328125 C -1.351562 0.273438 -1.429688 0.195312 -1.484375 0.09375 Z M 3.28125 -3.890625 L 5.234375 -3.890625 L 4.828125 -6.3125 Z M 3.28125 -3.890625 "/></g></g></g><g fill="#042651" fill-opacity="1"><g transform="translate(21.529263, 41.740082)"><g><path d="M 2.109375 0.21875 C 1.578125 -0.0820312 1.207031 -0.488281 1 -1 C 0.800781 -1.488281 0.769531 -2.019531 0.90625 -2.59375 L 2.046875 -7.53125 C 2.066406 -7.644531 2.082031 -7.742188 2.09375 -7.828125 C 2.101562 -7.910156 2.109375 -7.976562 2.109375 -8.03125 C 2.097656 -8.09375 2.082031 -8.132812 2.0625 -8.15625 C 2.050781 -8.15625 2.035156 -8.15625 2.015625 -8.15625 C 2.003906 -8.164062 1.96875 -8.175781 1.90625 -8.1875 C 1.851562 -8.195312 1.789062 -8.203125 1.71875 -8.203125 L 1.625 -8.203125 C 1.425781 -8.203125 1.273438 -8.253906 1.171875 -8.359375 C 1.085938 -8.453125 1.039062 -8.554688 1.03125 -8.671875 C 1.019531 -8.785156 1.023438 -8.875 1.046875 -8.9375 L 1.0625 -8.953125 C 1.09375 -9.097656 1.160156 -9.226562 1.265625 -9.34375 C 1.390625 -9.488281 1.546875 -9.5625 1.734375 -9.5625 L 1.75 -9.5625 C 2.375 -9.53125 2.941406 -9.515625 3.453125 -9.515625 C 4.035156 -9.515625 4.632812 -9.53125 5.25 -9.5625 L 5.265625 -9.5625 C 5.316406 -9.5625 5.375 -9.550781 5.4375 -9.53125 C 5.5 -9.507812 5.5625 -9.472656 5.625 -9.421875 C 5.6875 -9.378906 5.734375 -9.320312 5.765625 -9.25 C 5.796875 -9.1875 5.8125 -9.109375 5.8125 -9.015625 C 5.820312 -8.929688 5.816406 -8.859375 5.796875 -8.796875 L 5.796875 -8.765625 C 5.773438 -8.691406 5.757812 -8.640625 5.75 -8.609375 C 5.738281 -8.578125 5.710938 -8.53125 5.671875 -8.46875 C 5.628906 -8.40625 5.582031 -8.359375 5.53125 -8.328125 C 5.414062 -8.242188 5.273438 -8.203125 5.109375 -8.203125 C 4.984375 -8.203125 4.875 -8.191406 4.78125 -8.171875 C 4.6875 -8.160156 4.613281 -8.140625 4.5625 -8.109375 C 4.457031 -8.046875 4.390625 -7.976562 4.359375 -7.90625 C 4.335938 -7.851562 4.304688 -7.78125 4.265625 -7.6875 C 4.234375 -7.59375 4.203125 -7.484375 4.171875 -7.359375 L 3.125 -2.84375 C 2.988281 -2.257812 3.007812 -1.773438 3.1875 -1.390625 C 3.332031 -1.078125 3.78125 -0.921875 4.53125 -0.921875 C 5.1875 -0.921875 5.707031 -1.039062 6.09375 -1.28125 C 6.175781 -1.320312 6.257812 -1.378906 6.34375 -1.453125 C 6.75 -1.816406 7.019531 -2.269531 7.15625 -2.8125 L 8.015625 -6.625 C 8.160156 -7.257812 8.242188 -7.703125 8.265625 -7.953125 C 8.265625 -7.972656 8.265625 -7.992188 8.265625 -8.015625 C 8.265625 -8.046875 8.257812 -8.066406 8.25 -8.078125 C 8.25 -8.097656 8.25 -8.113281 8.25 -8.125 C 8.25 -8.144531 8.25 -8.15625 8.25 -8.15625 C 8.144531 -8.1875 7.972656 -8.203125 7.734375 -8.203125 L 7.640625 -8.203125 C 7.460938 -8.203125 7.320312 -8.253906 7.21875 -8.359375 C 7.113281 -8.441406 7.054688 -8.539062 7.046875 -8.65625 C 7.035156 -8.78125 7.039062 -8.875 7.0625 -8.9375 L 7.078125 -8.953125 C 7.109375 -9.097656 7.175781 -9.226562 7.28125 -9.34375 C 7.40625 -9.488281 7.5625 -9.5625 7.75 -9.5625 L 7.765625 -9.5625 C 8.078125 -9.539062 8.367188 -9.523438 8.640625 -9.515625 C 8.910156 -9.515625 9.15625 -9.515625 9.375 -9.515625 C 9.5 -9.515625 9.617188 -9.515625 9.734375 -9.515625 C 9.859375 -9.515625 9.988281 -9.515625 10.125 -9.515625 C 10.257812 -9.523438 10.398438 -9.53125 10.546875 -9.53125 C 10.691406 -9.539062 10.835938 -9.550781 10.984375 -9.5625 L 11 -9.5625 C 11.25 -9.5625 11.421875 -9.457031 11.515625 -9.25 C 11.546875 -9.1875 11.5625 -9.109375 11.5625 -9.015625 C 11.570312 -8.929688 11.566406 -8.859375 11.546875 -8.796875 L 11.546875 -8.765625 C 11.523438 -8.710938 11.507812 -8.671875 11.5 -8.640625 C 11.5 -8.617188 11.484375 -8.582031 11.453125 -8.53125 C 11.429688 -8.488281 11.40625 -8.445312 11.375 -8.40625 C 11.351562 -8.375 11.316406 -8.347656 11.265625 -8.328125 C 11.203125 -8.273438 11.132812 -8.238281 11.0625 -8.21875 C 11 -8.207031 10.925781 -8.203125 10.84375 -8.203125 C 10.507812 -8.203125 10.28125 -8.179688 10.15625 -8.140625 C 10.070312 -8.109375 9.992188 -8.007812 9.921875 -7.84375 C 9.878906 -7.726562 9.828125 -7.5625 9.765625 -7.34375 C 9.703125 -7.125 9.632812 -6.859375 9.5625 -6.546875 L 8.609375 -2.5 C 8.535156 -2.144531 8.410156 -1.816406 8.234375 -1.515625 C 8.066406 -1.210938 7.859375 -0.941406 7.609375 -0.703125 C 7.359375 -0.460938 7.09375 -0.257812 6.8125 -0.09375 C 6.757812 -0.0625 6.703125 -0.03125 6.640625 0 C 6.578125 0.0390625 6.515625 0.0703125 6.453125 0.09375 C 6.398438 0.125 6.34375 0.148438 6.28125 0.171875 C 6.21875 0.203125 6.15625 0.226562 6.09375 0.25 C 6.039062 0.28125 5.984375 0.304688 5.921875 0.328125 C 5.609375 0.441406 5.300781 0.523438 5 0.578125 C 4.695312 0.628906 4.40625 0.65625 4.125 0.65625 C 3.320312 0.65625 2.648438 0.507812 2.109375 0.21875 Z M 2.109375 0.21875 "/></g></g></g><g fill="#042651" fill-opacity="1"><g transform="translate(36.827084, 41.740082)"><g><path d="M 7.625 -6.671875 C 7.65625 -7.191406 7.65625 -7.5625 7.625 -7.78125 C 7.613281 -7.875 7.597656 -7.945312 7.578125 -8 C 7.554688 -8.050781 7.523438 -8.09375 7.484375 -8.125 C 7.441406 -8.15625 7.378906 -8.179688 7.296875 -8.203125 C 7.210938 -8.234375 7.113281 -8.25 7 -8.25 L 6.3125 -8.25 L 4.765625 -1.625 C 4.734375 -1.40625 4.71875 -1.234375 4.71875 -1.109375 C 4.71875 -1.066406 4.726562 -1.03125 4.75 -1 C 4.820312 -0.957031 4.941406 -0.9375 5.109375 -0.9375 L 5.1875 -0.9375 C 5.375 -0.9375 5.519531 -0.882812 5.625 -0.78125 C 5.707031 -0.695312 5.753906 -0.59375 5.765625 -0.46875 C 5.773438 -0.351562 5.769531 -0.269531 5.75 -0.21875 L 5.734375 -0.203125 C 5.710938 -0.046875 5.644531 0.0820312 5.53125 0.1875 C 5.40625 0.332031 5.25 0.40625 5.0625 0.40625 L 5.046875 0.40625 C 4.429688 0.375 3.867188 0.359375 3.359375 0.359375 C 3.242188 0.359375 3.128906 0.359375 3.015625 0.359375 C 2.898438 0.359375 2.78125 0.359375 2.65625 0.359375 C 2.539062 0.367188 2.421875 0.375 2.296875 0.375 C 2.171875 0.375 2.046875 0.375 1.921875 0.375 C 1.796875 0.382812 1.671875 0.394531 1.546875 0.40625 L 1.53125 0.40625 C 1.4375 0.40625 1.34375 0.378906 1.25 0.328125 C 1.15625 0.273438 1.082031 0.195312 1.03125 0.09375 C 0.96875 -0.03125 0.957031 -0.179688 1 -0.359375 C 1.007812 -0.421875 1.019531 -0.46875 1.03125 -0.5 C 1.050781 -0.53125 1.070312 -0.570312 1.09375 -0.625 C 1.113281 -0.675781 1.144531 -0.71875 1.1875 -0.75 C 1.226562 -0.789062 1.273438 -0.828125 1.328125 -0.859375 C 1.441406 -0.910156 1.59375 -0.9375 1.78125 -0.9375 C 1.882812 -0.9375 1.976562 -0.945312 2.0625 -0.96875 C 2.144531 -0.988281 2.207031 -1.015625 2.25 -1.046875 C 2.34375 -1.097656 2.410156 -1.171875 2.453125 -1.265625 C 2.503906 -1.390625 2.566406 -1.5625 2.640625 -1.78125 L 4.125 -8.25 L 3.578125 -8.25 C 3.535156 -8.25 3.488281 -8.242188 3.4375 -8.234375 C 3.394531 -8.234375 3.351562 -8.226562 3.3125 -8.21875 C 3.28125 -8.21875 3.242188 -8.210938 3.203125 -8.203125 C 3.171875 -8.191406 3.140625 -8.179688 3.109375 -8.171875 C 3.078125 -8.160156 3.046875 -8.148438 3.015625 -8.140625 C 2.992188 -8.128906 2.972656 -8.113281 2.953125 -8.09375 C 2.796875 -8 2.65625 -7.847656 2.53125 -7.640625 C 2.394531 -7.398438 2.242188 -7.050781 2.078125 -6.59375 C 2.015625 -6.425781 1.875 -6.296875 1.65625 -6.203125 C 1.488281 -6.140625 1.320312 -6.109375 1.15625 -6.109375 C 0.976562 -6.109375 0.828125 -6.164062 0.703125 -6.28125 C 0.535156 -6.425781 0.476562 -6.613281 0.53125 -6.84375 L 1.0625 -8.875 C 1.0625 -8.90625 1.066406 -8.929688 1.078125 -8.953125 C 1.085938 -8.972656 1.09375 -8.992188 1.09375 -9.015625 C 1.101562 -9.046875 1.109375 -9.070312 1.109375 -9.09375 C 1.117188 -9.113281 1.128906 -9.128906 1.140625 -9.140625 C 1.160156 -9.160156 1.175781 -9.179688 1.1875 -9.203125 C 1.207031 -9.222656 1.222656 -9.238281 1.234375 -9.25 C 1.253906 -9.269531 1.273438 -9.289062 1.296875 -9.3125 C 1.441406 -9.445312 1.632812 -9.515625 1.875 -9.515625 L 8.96875 -9.515625 C 9.03125 -9.515625 9.085938 -9.507812 9.140625 -9.5 C 9.203125 -9.488281 9.265625 -9.460938 9.328125 -9.421875 C 9.398438 -9.378906 9.460938 -9.332031 9.515625 -9.28125 C 9.554688 -9.21875 9.585938 -9.148438 9.609375 -9.078125 C 9.628906 -9.015625 9.640625 -8.953125 9.640625 -8.890625 C 9.640625 -8.835938 9.628906 -8.785156 9.609375 -8.734375 L 9.1875 -6.6875 C 9.15625 -6.488281 9.046875 -6.335938 8.859375 -6.234375 C 8.796875 -6.191406 8.722656 -6.160156 8.640625 -6.140625 C 8.566406 -6.117188 8.488281 -6.109375 8.40625 -6.109375 C 8.238281 -6.109375 8.082031 -6.144531 7.9375 -6.21875 C 7.851562 -6.257812 7.78125 -6.332031 7.71875 -6.4375 C 7.65625 -6.550781 7.625 -6.628906 7.625 -6.671875 Z M 7.625 -6.671875 "/></g></g></g><g fill="#042651" fill-opacity="1"><g transform="translate(50.385378, 41.740082)"><g><path d="M 4.203125 0.65625 C 3.210938 0.65625 2.382812 0.410156 1.71875 -0.078125 C 1.050781 -0.566406 0.597656 -1.210938 0.359375 -2.015625 C 0.117188 -2.796875 0.101562 -3.632812 0.3125 -4.53125 C 0.5625 -5.601562 1.019531 -6.539062 1.6875 -7.34375 C 2.351562 -8.132812 3.109375 -8.738281 3.953125 -9.15625 C 4.378906 -9.375 4.800781 -9.535156 5.21875 -9.640625 C 5.632812 -9.742188 6.039062 -9.796875 6.4375 -9.796875 C 6.769531 -9.796875 7.082031 -9.769531 7.375 -9.71875 C 7.664062 -9.664062 7.941406 -9.585938 8.203125 -9.484375 C 8.472656 -9.378906 8.726562 -9.242188 8.96875 -9.078125 C 9.1875 -8.910156 9.378906 -8.726562 9.546875 -8.53125 C 9.722656 -8.332031 9.875 -8.117188 10 -7.890625 C 10.132812 -7.660156 10.242188 -7.414062 10.328125 -7.15625 C 10.453125 -6.75 10.515625 -6.335938 10.515625 -5.921875 C 10.523438 -5.503906 10.476562 -5.070312 10.375 -4.625 C 10.125 -3.5625 9.660156 -2.625 8.984375 -1.8125 C 8.316406 -1.019531 7.554688 -0.410156 6.703125 0.015625 C 5.828125 0.441406 4.992188 0.65625 4.203125 0.65625 Z M 5.90625 -1.234375 C 6.144531 -1.410156 6.367188 -1.617188 6.578125 -1.859375 C 6.785156 -2.109375 6.976562 -2.390625 7.15625 -2.703125 C 7.269531 -2.910156 7.375 -3.125 7.46875 -3.34375 C 7.5625 -3.570312 7.648438 -3.804688 7.734375 -4.046875 C 7.816406 -4.285156 7.890625 -4.535156 7.953125 -4.796875 C 8.109375 -5.492188 8.148438 -6.132812 8.078125 -6.71875 C 8.003906 -7.269531 7.820312 -7.695312 7.53125 -8 C 7.382812 -8.144531 7.210938 -8.253906 7.015625 -8.328125 C 6.816406 -8.410156 6.578125 -8.453125 6.296875 -8.453125 C 5.859375 -8.453125 5.457031 -8.363281 5.09375 -8.1875 C 4.738281 -8.007812 4.410156 -7.734375 4.109375 -7.359375 C 3.460938 -6.585938 3.003906 -5.601562 2.734375 -4.40625 C 2.566406 -3.695312 2.515625 -3.050781 2.578125 -2.46875 C 2.648438 -1.914062 2.832031 -1.476562 3.125 -1.15625 C 3.269531 -1.007812 3.4375 -0.894531 3.625 -0.8125 C 3.820312 -0.738281 4.0625 -0.703125 4.34375 -0.703125 C 4.914062 -0.703125 5.4375 -0.878906 5.90625 -1.234375 Z M 5.90625 -1.234375 "/></g></g></g><g fill="#042651" fill-opacity="1"><g transform="translate(65.900638, 41.740082)"><g/></g></g><g fill="#042651" fill-opacity="1"><g transform="translate(73.993891, 41.740082)"><g><path d="M -0.6875 0.09375 C -0.75 -0.0390625 -0.753906 -0.203125 -0.703125 -0.390625 C -0.640625 -0.617188 -0.535156 -0.773438 -0.390625 -0.859375 C -0.285156 -0.910156 -0.132812 -0.9375 0.0625 -0.9375 C 0.269531 -0.9375 0.421875 -0.96875 0.515625 -1.03125 C 0.617188 -1.09375 0.6875 -1.171875 0.71875 -1.265625 C 0.78125 -1.390625 0.847656 -1.5625 0.921875 -1.78125 L 2.25 -7.53125 C 2.269531 -7.644531 2.285156 -7.742188 2.296875 -7.828125 C 2.304688 -7.910156 2.3125 -7.976562 2.3125 -8.03125 C 2.3125 -8.0625 2.304688 -8.082031 2.296875 -8.09375 C 2.296875 -8.113281 2.285156 -8.132812 2.265625 -8.15625 C 2.253906 -8.15625 2.238281 -8.15625 2.21875 -8.15625 C 2.207031 -8.164062 2.171875 -8.175781 2.109375 -8.1875 C 2.054688 -8.195312 1.992188 -8.203125 1.921875 -8.203125 L 1.828125 -8.203125 C 1.628906 -8.203125 1.476562 -8.253906 1.375 -8.359375 C 1.289062 -8.453125 1.242188 -8.554688 1.234375 -8.671875 C 1.222656 -8.785156 1.226562 -8.875 1.25 -8.9375 L 1.265625 -8.96875 L 1.265625 -8.984375 C 1.296875 -9.054688 1.328125 -9.117188 1.359375 -9.171875 C 1.390625 -9.234375 1.429688 -9.289062 1.484375 -9.34375 C 1.609375 -9.488281 1.765625 -9.5625 1.953125 -9.5625 L 1.96875 -9.5625 C 2.59375 -9.53125 3.15625 -9.515625 3.65625 -9.515625 L 5.703125 -9.515625 C 5.984375 -9.515625 6.234375 -9.503906 6.453125 -9.484375 C 6.671875 -9.460938 6.867188 -9.425781 7.046875 -9.375 C 7.398438 -9.289062 7.707031 -9.15625 7.96875 -8.96875 C 8.25 -8.75 8.445312 -8.457031 8.5625 -8.09375 C 8.570312 -8 8.582031 -7.90625 8.59375 -7.8125 C 8.613281 -7.726562 8.625 -7.640625 8.625 -7.546875 C 8.625 -7.453125 8.617188 -7.359375 8.609375 -7.265625 C 8.597656 -7.171875 8.582031 -7.070312 8.5625 -6.96875 C 8.394531 -6.28125 8.039062 -5.738281 7.5 -5.34375 C 7.332031 -5.21875 7.15625 -5.101562 6.96875 -5 C 7.007812 -4.988281 7.039062 -4.972656 7.0625 -4.953125 C 7.09375 -4.941406 7.117188 -4.929688 7.140625 -4.921875 C 7.160156 -4.921875 7.179688 -4.910156 7.203125 -4.890625 C 7.640625 -4.648438 7.953125 -4.328125 8.140625 -3.921875 C 8.203125 -3.785156 8.25 -3.644531 8.28125 -3.5 C 8.3125 -3.363281 8.320312 -3.21875 8.3125 -3.0625 C 8.3125 -2.914062 8.289062 -2.765625 8.25 -2.609375 C 8.164062 -2.253906 8.03125 -1.921875 7.84375 -1.609375 C 7.664062 -1.304688 7.441406 -1.046875 7.171875 -0.828125 C 6.898438 -0.609375 6.609375 -0.421875 6.296875 -0.265625 C 5.992188 -0.109375 5.671875 0.015625 5.328125 0.109375 C 4.648438 0.285156 3.972656 0.375 3.296875 0.375 L 1.546875 0.359375 C 1.285156 0.359375 1.015625 0.359375 0.734375 0.359375 C 0.453125 0.367188 0.148438 0.382812 -0.171875 0.40625 L -0.1875 0.40625 C -0.425781 0.40625 -0.59375 0.300781 -0.6875 0.09375 Z M 4.109375 -5.53125 C 4.285156 -5.53125 4.453125 -5.535156 4.609375 -5.546875 C 4.773438 -5.554688 4.925781 -5.578125 5.0625 -5.609375 C 5.175781 -5.628906 5.289062 -5.671875 5.40625 -5.734375 C 5.519531 -5.796875 5.632812 -5.878906 5.75 -5.984375 C 5.976562 -6.179688 6.148438 -6.507812 6.265625 -6.96875 C 6.273438 -7.03125 6.285156 -7.085938 6.296875 -7.140625 C 6.304688 -7.203125 6.3125 -7.257812 6.3125 -7.3125 C 6.320312 -7.363281 6.328125 -7.414062 6.328125 -7.46875 C 6.328125 -7.65625 6.296875 -7.800781 6.234375 -7.90625 C 6.179688 -8.019531 6.078125 -8.101562 5.921875 -8.15625 C 5.773438 -8.21875 5.570312 -8.25 5.3125 -8.25 L 4.578125 -8.25 L 3.9375 -5.53125 Z M 5.125 -1.390625 C 5.539062 -1.691406 5.828125 -2.179688 5.984375 -2.859375 C 6.046875 -3.242188 5.941406 -3.5625 5.671875 -3.8125 C 5.546875 -3.9375 5.335938 -4.035156 5.046875 -4.109375 C 4.753906 -4.179688 4.390625 -4.21875 3.953125 -4.21875 L 3.65625 -4.21875 L 3.046875 -1.609375 C 2.984375 -1.328125 2.960938 -1.132812 2.984375 -1.03125 C 2.984375 -1.007812 2.988281 -0.992188 3 -0.984375 C 3.082031 -0.941406 3.242188 -0.921875 3.484375 -0.921875 C 4.117188 -0.929688 4.664062 -1.085938 5.125 -1.390625 Z M 5.125 -1.390625 "/></g></g></g><g fill="#042651" fill-opacity="1"><g transform="translate(87.856602, 41.740082)"><g><path d="M 4.203125 0.65625 C 3.210938 0.65625 2.382812 0.410156 1.71875 -0.078125 C 1.050781 -0.566406 0.597656 -1.210938 0.359375 -2.015625 C 0.117188 -2.796875 0.101562 -3.632812 0.3125 -4.53125 C 0.5625 -5.601562 1.019531 -6.539062 1.6875 -7.34375 C 2.351562 -8.132812 3.109375 -8.738281 3.953125 -9.15625 C 4.378906 -9.375 4.800781 -9.535156 5.21875 -9.640625 C 5.632812 -9.742188 6.039062 -9.796875 6.4375 -9.796875 C 6.769531 -9.796875 7.082031 -9.769531 7.375 -9.71875 C 7.664062 -9.664062 7.941406 -9.585938 8.203125 -9.484375 C 8.472656 -9.378906 8.726562 -9.242188 8.96875 -9.078125 C 9.1875 -8.910156 9.378906 -8.726562 9.546875 -8.53125 C 9.722656 -8.332031 9.875 -8.117188 10 -7.890625 C 10.132812 -7.660156 10.242188 -7.414062 10.328125 -7.15625 C 10.453125 -6.75 10.515625 -6.335938 10.515625 -5.921875 C 10.523438 -5.503906 10.476562 -5.070312 10.375 -4.625 C 10.125 -3.5625 9.660156 -2.625 8.984375 -1.8125 C 8.316406 -1.019531 7.554688 -0.410156 6.703125 0.015625 C 5.828125 0.441406 4.992188 0.65625 4.203125 0.65625 Z M 5.90625 -1.234375 C 6.144531 -1.410156 6.367188 -1.617188 6.578125 -1.859375 C 6.785156 -2.109375 6.976562 -2.390625 7.15625 -2.703125 C 7.269531 -2.910156 7.375 -3.125 7.46875 -3.34375 C 7.5625 -3.570312 7.648438 -3.804688 7.734375 -4.046875 C 7.816406 -4.285156 7.890625 -4.535156 7.953125 -4.796875 C 8.109375 -5.492188 8.148438 -6.132812 8.078125 -6.71875 C 8.003906 -7.269531 7.820312 -7.695312 7.53125 -8 C 7.382812 -8.144531 7.210938 -8.253906 7.015625 -8.328125 C 6.816406 -8.410156 6.578125 -8.453125 6.296875 -8.453125 C 5.859375 -8.453125 5.457031 -8.363281 5.09375 -8.1875 C 4.738281 -8.007812 4.410156 -7.734375 4.109375 -7.359375 C 3.460938 -6.585938 3.003906 -5.601562 2.734375 -4.40625 C 2.566406 -3.695312 2.515625 -3.050781 2.578125 -2.46875 C 2.648438 -1.914062 2.832031 -1.476562 3.125 -1.15625 C 3.269531 -1.007812 3.4375 -0.894531 3.625 -0.8125 C 3.820312 -0.738281 4.0625 -0.703125 4.34375 -0.703125 C 4.914062 -0.703125 5.4375 -0.878906 5.90625 -1.234375 Z M 5.90625 -1.234375 "/></g></g></g><g fill="#042651" fill-opacity="1"><g transform="translate(103.371864, 41.740082)"><g><path d="M -0.6875 0.09375 C -0.738281 -0.0390625 -0.738281 -0.203125 -0.6875 -0.390625 C -0.625 -0.617188 -0.519531 -0.773438 -0.375 -0.859375 C -0.269531 -0.910156 -0.117188 -0.9375 0.078125 -0.9375 C 0.285156 -0.9375 0.4375 -0.96875 0.53125 -1.03125 C 0.632812 -1.09375 0.703125 -1.171875 0.734375 -1.265625 C 0.796875 -1.390625 0.859375 -1.5625 0.921875 -1.78125 L 2.265625 -7.53125 C 2.304688 -7.75 2.328125 -7.914062 2.328125 -8.03125 C 2.316406 -8.09375 2.300781 -8.132812 2.28125 -8.15625 C 2.269531 -8.15625 2.257812 -8.15625 2.25 -8.15625 C 2.25 -8.15625 2.238281 -8.15625 2.21875 -8.15625 C 2.195312 -8.164062 2.175781 -8.171875 2.15625 -8.171875 C 2.132812 -8.179688 2.101562 -8.1875 2.0625 -8.1875 C 2.019531 -8.195312 1.972656 -8.203125 1.921875 -8.203125 L 1.84375 -8.203125 C 1.644531 -8.203125 1.492188 -8.253906 1.390625 -8.359375 C 1.304688 -8.453125 1.257812 -8.554688 1.25 -8.671875 C 1.238281 -8.785156 1.242188 -8.875 1.265625 -8.9375 L 1.28125 -8.96875 L 1.28125 -8.984375 C 1.3125 -9.054688 1.34375 -9.117188 1.375 -9.171875 C 1.40625 -9.234375 1.445312 -9.289062 1.5 -9.34375 C 1.625 -9.488281 1.773438 -9.5625 1.953125 -9.5625 L 1.96875 -9.5625 C 2.28125 -9.539062 2.578125 -9.523438 2.859375 -9.515625 C 3.148438 -9.515625 3.421875 -9.515625 3.671875 -9.515625 L 5.9375 -9.515625 C 6.914062 -9.515625 7.773438 -9.3125 8.515625 -8.90625 C 8.878906 -8.695312 9.191406 -8.441406 9.453125 -8.140625 C 9.722656 -7.847656 9.9375 -7.507812 10.09375 -7.125 C 10.40625 -6.351562 10.4375 -5.457031 10.1875 -4.4375 C 9.957031 -3.394531 9.488281 -2.503906 8.78125 -1.765625 C 8.09375 -1.054688 7.285156 -0.519531 6.359375 -0.15625 C 5.441406 0.1875 4.503906 0.359375 3.546875 0.359375 L 1.546875 0.359375 C 1.296875 0.359375 1.023438 0.359375 0.734375 0.359375 C 0.453125 0.367188 0.148438 0.382812 -0.171875 0.40625 L -0.1875 0.40625 C -0.414062 0.40625 -0.582031 0.300781 -0.6875 0.09375 Z M 6.359375 -1.84375 C 7.003906 -2.488281 7.46875 -3.410156 7.75 -4.609375 C 7.90625 -5.347656 7.921875 -6 7.796875 -6.5625 C 7.679688 -7.101562 7.425781 -7.519531 7.03125 -7.8125 C 6.90625 -7.90625 6.765625 -7.984375 6.609375 -8.046875 C 6.453125 -8.117188 6.273438 -8.171875 6.078125 -8.203125 C 5.890625 -8.242188 5.679688 -8.265625 5.453125 -8.265625 L 4.59375 -8.25 L 3.015625 -1.4375 C 3.003906 -1.382812 2.992188 -1.335938 2.984375 -1.296875 C 2.984375 -1.253906 2.984375 -1.21875 2.984375 -1.1875 C 2.984375 -1.164062 2.984375 -1.144531 2.984375 -1.125 C 2.992188 -1.113281 3 -1.097656 3 -1.078125 C 3.007812 -1.066406 3.015625 -1.054688 3.015625 -1.046875 C 3.023438 -1.046875 3.035156 -1.046875 3.046875 -1.046875 C 3.179688 -0.953125 3.46875 -0.90625 3.90625 -0.90625 C 4.925781 -0.90625 5.742188 -1.21875 6.359375 -1.84375 Z M 6.359375 -1.84375 "/></g></g></g><g fill="#042651" fill-opacity="1"><g transform="translate(118.785663, 41.740082)"><g><path d="M 1.171875 0.09375 C 1.117188 -0.03125 1.109375 -0.175781 1.140625 -0.34375 L 1.140625 -0.390625 C 1.171875 -0.460938 1.191406 -0.519531 1.203125 -0.5625 C 1.222656 -0.601562 1.257812 -0.65625 1.3125 -0.71875 C 1.363281 -0.78125 1.425781 -0.828125 1.5 -0.859375 C 1.601562 -0.910156 1.742188 -0.9375 1.921875 -0.9375 C 2.035156 -0.9375 2.128906 -0.945312 2.203125 -0.96875 C 2.285156 -0.988281 2.347656 -1.015625 2.390625 -1.046875 C 2.484375 -1.097656 2.550781 -1.171875 2.59375 -1.265625 C 2.65625 -1.390625 2.71875 -1.5625 2.78125 -1.78125 L 3.1875 -3.5625 C 3.1875 -3.757812 3.082031 -4.273438 2.875 -5.109375 C 2.625 -6.066406 2.410156 -6.8125 2.234375 -7.34375 C 2.140625 -7.632812 2.023438 -7.84375 1.890625 -7.96875 C 1.734375 -8.09375 1.523438 -8.1875 1.265625 -8.25 C 1.242188 -8.25 1.21875 -8.25 1.1875 -8.25 C 1.164062 -8.257812 1.140625 -8.269531 1.109375 -8.28125 C 0.898438 -8.320312 0.765625 -8.429688 0.703125 -8.609375 C 0.671875 -8.710938 0.671875 -8.84375 0.703125 -9 L 0.703125 -9.015625 C 0.753906 -9.242188 0.867188 -9.398438 1.046875 -9.484375 C 1.171875 -9.546875 1.328125 -9.578125 1.515625 -9.578125 C 2.347656 -9.578125 2.988281 -9.460938 3.4375 -9.234375 C 3.601562 -9.148438 3.75 -9.035156 3.875 -8.890625 C 4.007812 -8.753906 4.125 -8.597656 4.21875 -8.421875 C 4.320312 -8.242188 4.414062 -8.046875 4.5 -7.828125 L 4.5 -7.8125 C 4.582031 -7.488281 4.703125 -7.023438 4.859375 -6.421875 C 4.910156 -6.234375 4.957031 -6.054688 5 -5.890625 C 5.050781 -5.722656 5.097656 -5.578125 5.140625 -5.453125 L 5.90625 -6.5 L 7.0625 -8.078125 C 7.070312 -8.097656 7.082031 -8.113281 7.09375 -8.125 C 7.113281 -8.144531 7.132812 -8.164062 7.15625 -8.1875 C 7.101562 -8.195312 7.054688 -8.203125 7.015625 -8.203125 C 6.972656 -8.203125 6.925781 -8.203125 6.875 -8.203125 L 6.78125 -8.203125 C 6.582031 -8.203125 6.429688 -8.257812 6.328125 -8.375 C 6.296875 -8.414062 6.269531 -8.453125 6.25 -8.484375 C 6.226562 -8.523438 6.210938 -8.554688 6.203125 -8.578125 C 6.191406 -8.609375 6.1875 -8.644531 6.1875 -8.6875 C 6.1875 -8.726562 6.1875 -8.753906 6.1875 -8.765625 C 6.195312 -8.785156 6.203125 -8.816406 6.203125 -8.859375 C 6.210938 -8.898438 6.21875 -8.925781 6.21875 -8.9375 L 6.234375 -8.953125 C 6.265625 -9.097656 6.332031 -9.226562 6.4375 -9.34375 C 6.5625 -9.488281 6.71875 -9.5625 6.90625 -9.5625 L 6.921875 -9.5625 C 7.222656 -9.539062 7.503906 -9.523438 7.765625 -9.515625 C 8.023438 -9.515625 8.265625 -9.515625 8.484375 -9.515625 C 8.660156 -9.515625 8.867188 -9.515625 9.109375 -9.515625 C 9.347656 -9.523438 9.625 -9.539062 9.9375 -9.5625 L 9.953125 -9.5625 C 10.191406 -9.5625 10.359375 -9.457031 10.453125 -9.25 C 10.484375 -9.1875 10.5 -9.109375 10.5 -9.015625 C 10.507812 -8.929688 10.503906 -8.859375 10.484375 -8.796875 L 10.484375 -8.765625 C 10.460938 -8.710938 10.445312 -8.671875 10.4375 -8.640625 C 10.4375 -8.617188 10.425781 -8.582031 10.40625 -8.53125 C 10.382812 -8.488281 10.359375 -8.445312 10.328125 -8.40625 C 10.296875 -8.375 10.253906 -8.347656 10.203125 -8.328125 C 10.148438 -8.273438 10.085938 -8.238281 10.015625 -8.21875 C 9.941406 -8.207031 9.863281 -8.203125 9.78125 -8.203125 C 9.664062 -8.203125 9.554688 -8.191406 9.453125 -8.171875 C 9.359375 -8.160156 9.269531 -8.144531 9.1875 -8.125 C 9.101562 -8.101562 9.023438 -8.070312 8.953125 -8.03125 C 8.835938 -7.96875 8.722656 -7.878906 8.609375 -7.765625 C 8.492188 -7.660156 8.375 -7.523438 8.25 -7.359375 L 6.984375 -5.71875 L 5.890625 -4.28125 C 5.878906 -4.269531 5.867188 -4.253906 5.859375 -4.234375 C 5.847656 -4.210938 5.832031 -4.191406 5.8125 -4.171875 C 5.800781 -4.148438 5.785156 -4.128906 5.765625 -4.109375 C 5.742188 -4.085938 5.722656 -4.0625 5.703125 -4.03125 C 5.691406 -4 5.671875 -3.960938 5.640625 -3.921875 C 5.535156 -3.773438 5.453125 -3.632812 5.390625 -3.5 C 5.367188 -3.457031 5.347656 -3.410156 5.328125 -3.359375 C 5.316406 -3.316406 5.300781 -3.265625 5.28125 -3.203125 C 5.269531 -3.148438 5.253906 -3.085938 5.234375 -3.015625 L 4.921875 -1.625 C 4.878906 -1.40625 4.859375 -1.234375 4.859375 -1.109375 C 4.859375 -1.066406 4.875 -1.03125 4.90625 -1 C 4.96875 -0.957031 5.082031 -0.9375 5.25 -0.9375 L 5.34375 -0.9375 C 5.53125 -0.9375 5.675781 -0.882812 5.78125 -0.78125 C 5.882812 -0.6875 5.9375 -0.578125 5.9375 -0.453125 C 5.9375 -0.328125 5.921875 -0.242188 5.890625 -0.203125 C 5.859375 -0.046875 5.789062 0.0820312 5.6875 0.1875 C 5.5625 0.332031 5.40625 0.40625 5.21875 0.40625 L 5.203125 0.40625 C 4.597656 0.375 4.03125 0.359375 3.5 0.359375 C 3.394531 0.359375 3.296875 0.359375 3.203125 0.359375 C 3.109375 0.359375 3.007812 0.359375 2.90625 0.359375 C 2.8125 0.359375 2.71875 0.359375 2.625 0.359375 C 2.53125 0.367188 2.425781 0.375 2.3125 0.375 C 2.207031 0.382812 2.101562 0.390625 2 0.390625 C 1.90625 0.390625 1.804688 0.394531 1.703125 0.40625 L 1.6875 0.40625 C 1.582031 0.40625 1.484375 0.378906 1.390625 0.328125 C 1.296875 0.273438 1.222656 0.195312 1.171875 0.09375 Z M 1.171875 0.09375 "/></g></g></g></svg>